<?xml version="1.0" encoding="UTF-8" standalone="no"?>
<!DOCTYPE svg PUBLIC "-//W3C//DTD SVG 1.1//EN" "http://www.w3.org/Graphics/SVG/1.1/DTD/svg11.dtd">
<svg width="100%" height="100%" viewBox="0 0 154 48" version="1.1" xmlns="http://www.w3.org/2000/svg" xmlns:xlink="http://www.w3.org/1999/xlink" xml:space="preserve" xmlns:serif="http://www.serif.com/" style="fill-rule:evenodd;clip-rule:evenodd;stroke-linejoin:round;stroke-miterlimit:2;">
    <g>
        <g transform="matrix(0.729166,0,0,0.729166,7.00002,6.50001)">
            <path d="M48,24C48,37.246 37.246,48 24,48C10.754,48 -0,37.246 -0,24C-0,10.754 10.754,0 24,0C37.246,0 48,10.754 48,24Z" style="fill:white;"/>
            <path d="M3.443,3.443C-0,6.886 -0,12.427 -0,23.51L-0,24.49C-0,35.573 -0,41.114 3.443,44.557C6.886,48 12.427,48 23.51,48L24.49,48C35.573,48 41.114,48 44.557,44.557C48,41.114 48,35.573 48,24.49L48,23.51C48,12.427 48,6.886 44.557,3.443C41.114,0 35.573,0 24.49,0L23.51,0C12.427,0 6.886,0 3.443,3.443ZM38.386,12.014C35.275,11.879 32.202,12.751 29.614,14.503C27.027,16.255 25.06,18.796 24,21.755C22.94,18.796 20.973,16.255 18.385,14.503C15.798,12.751 12.725,11.879 9.613,12.014C9.509,14.528 10.04,17.029 11.157,19.278C12.274,21.528 13.939,23.453 15.997,24.872C17.052,25.605 17.915,26.586 18.51,27.732C19.104,28.878 19.414,30.153 19.41,31.447L19.41,36L28.59,36L28.59,31.447C28.587,30.153 28.896,28.878 29.49,27.732C30.085,26.586 30.947,25.605 32.003,24.872C34.061,23.454 35.727,21.529 36.844,19.279C37.961,17.029 38.492,14.528 38.386,12.014ZM16.519,31.447C16.523,30.629 16.329,29.822 15.954,29.097C15.58,28.371 15.035,27.75 14.368,27.285C13.462,26.661 12.616,25.951 11.84,25.167C11.001,24.318 10.251,23.385 9.6,22.382L9.6,36L16.519,36L16.519,31.447ZM32.045,29.097C31.67,29.822 31.477,30.629 31.481,31.447L31.481,36L38.4,36L38.4,22.382C37.749,23.385 36.998,24.318 36.159,25.167C35.384,25.951 34.537,26.661 33.631,27.285C32.964,27.75 32.42,28.371 32.045,29.097Z" style="fill:rgb(224,9,95);"/>
        </g>
        <g transform="matrix(1.28074,0,0,1.28074,-43.0103,-6.45704)">
            <path d="M147.379,19.541C147,19.387 146.587,19.31 146.138,19.31C145.592,19.31 145.094,19.408 144.645,19.605C144.197,19.787 143.812,20.06 143.489,20.424C143.181,20.789 142.935,21.23 142.753,21.749C142.585,22.254 142.501,22.835 142.501,23.494L142.501,26.879C142.501,27.524 142.585,28.099 142.753,28.603C142.935,29.108 143.181,29.542 143.489,29.907C143.812,30.257 144.19,30.523 144.624,30.706C145.073,30.888 145.564,30.979 146.096,30.979C146.587,30.979 147.028,30.902 147.421,30.748C147.827,30.58 148.192,30.348 148.514,30.054C148.85,29.746 149.131,29.374 149.355,28.94L149.703,28.94C149.726,29.069 149.758,29.195 149.797,29.318C149.909,29.612 150.07,29.872 150.28,30.096C150.504,30.306 150.785,30.474 151.121,30.601C151.458,30.713 151.843,30.769 152.278,30.769L152.971,30.769C153.041,30.769 153.098,30.748 153.14,30.706C153.182,30.664 153.203,30.608 153.203,30.538L153.203,28.813L152.635,28.813C152.523,28.813 152.418,28.799 152.32,28.771C152.236,28.743 152.172,28.701 152.13,28.645C152.06,28.575 152.004,28.491 151.962,28.393C151.934,28.295 151.92,28.176 151.92,28.036L151.92,15.231C151.92,15.175 151.906,15.133 151.878,15.105C151.864,15.077 151.843,15.056 151.815,15.042C151.787,15.014 151.745,15 151.689,15L149.649,15L149.649,21.076L149.292,21.076C149.04,20.698 148.752,20.382 148.43,20.13C148.108,19.878 147.757,19.682 147.379,19.541ZM149.649,22.95C149.259,22.474 148.86,22.123 148.451,21.896C147.946,21.602 147.407,21.455 146.832,21.455C146.412,21.455 146.047,21.546 145.739,21.728C145.43,21.91 145.192,22.184 145.024,22.548C144.87,22.898 144.793,23.333 144.793,23.852L144.793,26.522C144.793,26.928 144.842,27.286 144.94,27.594C145.038,27.888 145.178,28.127 145.36,28.309C145.543,28.477 145.753,28.61 145.991,28.708C146.243,28.792 146.524,28.834 146.832,28.834C147.211,28.834 147.575,28.757 147.925,28.603C148.276,28.435 148.612,28.19 148.935,27.867C149.18,27.632 149.419,27.351 149.649,27.026L149.649,22.95ZM74.208,30.769L72.231,30.769C72.189,30.769 72.147,30.762 72.105,30.748L72.021,30.664C72.007,30.622 72,30.58 72,30.538L72,16.051L74.838,16.051C74.908,16.051 74.965,16.065 75.007,16.093C75.063,16.107 75.112,16.142 75.154,16.198C75.196,16.255 75.238,16.346 75.28,16.472C75.532,17.046 75.778,17.635 76.016,18.238C76.268,18.827 76.513,19.422 76.752,20.025C77.004,20.628 77.249,21.237 77.488,21.854C77.74,22.471 77.985,23.102 78.223,23.746C78.334,24.024 78.447,24.304 78.561,24.587L78.926,24.587C79.043,24.285 79.16,23.983 79.275,23.683C79.541,23.025 79.8,22.373 80.053,21.728C80.305,21.083 80.557,20.446 80.809,19.815C81.062,19.17 81.314,18.539 81.566,17.923C81.819,17.292 82.071,16.668 82.323,16.051L85.267,16.051C85.309,16.051 85.344,16.065 85.372,16.093C85.414,16.107 85.442,16.135 85.456,16.177C85.484,16.205 85.498,16.241 85.498,16.282L85.498,30.769L83.501,30.769C83.459,30.769 83.417,30.762 83.375,30.748L83.29,30.664C83.276,30.622 83.269,30.58 83.269,30.538L83.269,26.375C83.283,25.926 83.29,25.477 83.29,25.029C83.304,24.58 83.318,24.118 83.332,23.641C83.361,23.165 83.388,22.674 83.417,22.17C83.459,21.665 83.501,21.132 83.543,20.572C83.571,20.185 83.599,19.785 83.628,19.373L83.217,19.373C83.054,19.771 82.882,20.177 82.702,20.593C82.435,21.223 82.169,21.868 81.903,22.527C81.636,23.186 81.37,23.837 81.104,24.482C80.838,25.127 80.578,25.751 80.326,26.354C80.074,26.956 79.835,27.531 79.611,28.078L77.992,28.078C77.95,28.078 77.908,28.071 77.866,28.057C77.824,28.029 77.782,27.972 77.74,27.888C77.586,27.482 77.389,27.005 77.151,26.459C76.927,25.912 76.689,25.323 76.436,24.693C76.184,24.048 75.918,23.389 75.637,22.716C75.357,22.029 75.077,21.357 74.796,20.698C74.617,20.244 74.44,19.802 74.266,19.373L73.843,19.373C73.876,19.768 73.907,20.153 73.934,20.53C73.99,21.09 74.032,21.623 74.06,22.128C74.103,22.632 74.131,23.123 74.144,23.599C74.159,24.076 74.173,24.545 74.187,25.008C74.201,25.456 74.208,25.905 74.208,26.354L74.208,30.769ZM92.427,19.31C93.142,19.31 93.78,19.401 94.341,19.583C94.915,19.752 95.399,19.997 95.791,20.319C96.184,20.642 96.478,21.027 96.674,21.476C96.885,21.91 96.99,22.394 96.99,22.926L96.99,23.137C96.99,23.767 96.871,24.293 96.632,24.714C96.394,25.134 96.051,25.449 95.602,25.66C95.153,25.87 94.621,25.975 94.004,25.975L89.673,25.975L89.673,26.333C89.673,26.753 89.729,27.124 89.841,27.447C89.953,27.769 90.115,28.043 90.325,28.267C90.591,28.533 90.934,28.729 91.355,28.856C91.789,28.982 92.322,29.045 92.953,29.045C93.443,29.045 93.878,29.017 94.256,28.961C94.635,28.904 94.985,28.827 95.308,28.729C95.644,28.617 95.994,28.477 96.359,28.309L96.695,28.309L96.695,29.991C96.695,30.019 96.688,30.047 96.674,30.075C96.674,30.103 96.66,30.131 96.632,30.159C96.492,30.299 96.247,30.432 95.896,30.558C95.56,30.685 95.132,30.79 94.614,30.874C94.095,30.958 93.521,31 92.89,31C92.007,31 91.229,30.902 90.556,30.706C89.883,30.495 89.316,30.194 88.853,29.802C88.39,29.409 88.04,28.926 87.802,28.351C87.563,27.762 87.444,27.089 87.444,26.333L87.444,24.062C87.444,23.291 87.563,22.611 87.802,22.022C88.054,21.42 88.404,20.922 88.853,20.53C89.316,20.123 89.848,19.822 90.451,19.626C91.068,19.415 91.726,19.31 92.427,19.31ZM93.352,24.461L89.673,24.461L89.673,24.02C89.673,23.347 89.778,22.807 89.988,22.401C90.213,21.994 90.528,21.7 90.934,21.518C91.341,21.322 91.839,21.223 92.427,21.223C92.848,21.223 93.212,21.272 93.521,21.371C93.843,21.469 94.102,21.616 94.298,21.812C94.467,21.98 94.586,22.177 94.656,22.401C94.74,22.611 94.782,22.863 94.782,23.158C94.782,23.592 94.663,23.922 94.425,24.146C94.2,24.356 93.843,24.461 93.352,24.461ZM101.207,23.439L101.207,30.769L99,30.769L98.916,30.727L98.874,30.643L98.874,19.541L100.976,19.541C101.032,19.541 101.074,19.555 101.102,19.583C101.13,19.598 101.151,19.619 101.165,19.647C101.193,19.675 101.207,19.717 101.207,19.773L101.207,21.539L101.586,21.539C101.838,21.02 102.097,20.6 102.364,20.277C102.644,19.941 102.952,19.703 103.289,19.562C103.639,19.408 104.025,19.331 104.445,19.331C104.684,19.331 104.88,19.352 105.034,19.394C105.202,19.422 105.328,19.464 105.412,19.52C105.482,19.548 105.525,19.591 105.539,19.647C105.553,19.689 105.56,19.745 105.56,19.815L105.56,21.77L105.223,21.77C105.083,21.728 104.922,21.693 104.74,21.665C104.571,21.637 104.375,21.623 104.151,21.623C103.702,21.623 103.296,21.707 102.931,21.875C102.581,22.043 102.238,22.296 101.901,22.632C101.676,22.857 101.445,23.126 101.207,23.439ZM107.288,19.541L109.075,19.541L109.159,19.878C109.215,20.102 109.278,20.361 109.348,20.656C109.394,20.85 109.438,21.032 109.478,21.202L109.853,21.202C110.119,20.81 110.406,20.474 110.715,20.193C111.023,19.899 111.353,19.682 111.703,19.541C112.053,19.387 112.425,19.31 112.817,19.31C113.224,19.31 113.588,19.373 113.911,19.499C114.247,19.612 114.534,19.787 114.773,20.025C115.025,20.249 115.214,20.537 115.34,20.887C115.381,20.988 115.415,21.093 115.444,21.202L115.866,21.202C116.132,20.768 116.406,20.417 116.686,20.151C116.98,19.871 117.303,19.661 117.653,19.52C118.003,19.38 118.389,19.31 118.809,19.31C119.16,19.31 119.496,19.373 119.819,19.499C120.141,19.612 120.421,19.787 120.66,20.025C120.912,20.263 121.108,20.565 121.248,20.929C121.388,21.294 121.459,21.721 121.459,22.212L121.459,28.414C121.459,28.47 121.466,28.526 121.48,28.582C121.494,28.624 121.522,28.666 121.564,28.708L121.69,28.792C121.732,28.806 121.788,28.813 121.858,28.813L122.321,28.813L122.321,30.538C122.321,30.608 122.3,30.664 122.258,30.706C122.215,30.748 122.159,30.769 122.089,30.769L120.954,30.769C120.562,30.769 120.225,30.699 119.945,30.558C119.664,30.418 119.454,30.215 119.314,29.949C119.188,29.668 119.125,29.339 119.125,28.961L119.125,22.905C119.125,22.415 119.027,22.057 118.83,21.833C118.648,21.609 118.347,21.497 117.926,21.497C117.618,21.497 117.31,21.588 117.001,21.77C116.693,21.938 116.392,22.191 116.097,22.527C115.909,22.733 115.727,22.976 115.551,23.256L115.551,30.769L113.427,30.769C113.385,30.769 113.343,30.762 113.301,30.748L113.217,30.664C113.203,30.636 113.196,30.593 113.196,30.538L113.196,22.842C113.196,22.534 113.154,22.282 113.07,22.085C113,21.875 112.88,21.728 112.712,21.644C112.558,21.546 112.355,21.497 112.102,21.497C111.808,21.497 111.5,21.588 111.177,21.77C110.869,21.938 110.561,22.191 110.252,22.527C110.042,22.756 109.832,23.028 109.622,23.342L109.622,30.769L107.414,30.769L107.33,30.727L107.288,30.643L107.288,19.541ZM128.725,19.52C128.347,19.38 127.919,19.31 127.442,19.31C126.896,19.31 126.398,19.408 125.95,19.605C125.501,19.787 125.116,20.06 124.793,20.424C124.485,20.789 124.24,21.23 124.057,21.749C123.889,22.268 123.805,22.849 123.805,23.494L123.805,26.879C123.805,27.524 123.889,28.099 124.057,28.603C124.24,29.108 124.485,29.542 124.793,29.907C125.116,30.257 125.494,30.523 125.929,30.706C126.377,30.888 126.868,30.979 127.4,30.979C127.891,30.979 128.333,30.902 128.725,30.748C129.131,30.58 129.496,30.348 129.818,30.054C130.155,29.746 130.435,29.374 130.659,28.94L131.009,28.94C131.054,29.174 131.127,29.391 131.227,29.591C131.423,29.956 131.718,30.243 132.11,30.453C132.516,30.664 133.007,30.769 133.582,30.769L134.276,30.769C134.346,30.769 134.402,30.748 134.444,30.706C134.486,30.664 134.507,30.608 134.507,30.538L134.507,28.813L133.939,28.813C133.701,28.813 133.519,28.75 133.393,28.624C133.28,28.498 133.224,28.302 133.224,28.036L133.224,19.773C133.224,19.717 133.21,19.675 133.182,19.647C133.168,19.619 133.147,19.598 133.119,19.583C133.091,19.555 133.049,19.541 132.993,19.541L130.954,19.541L130.954,21.055L130.596,21.055C130.372,20.677 130.099,20.361 129.776,20.109C129.468,19.843 129.117,19.647 128.725,19.52ZM130.954,22.95C130.563,22.474 130.164,22.123 129.755,21.896C129.251,21.602 128.711,21.455 128.136,21.455C127.716,21.455 127.351,21.546 127.043,21.728C126.749,21.91 126.517,22.184 126.349,22.548C126.181,22.898 126.097,23.333 126.097,23.852L126.097,26.522C126.097,26.928 126.146,27.286 126.244,27.594C126.342,27.888 126.482,28.127 126.665,28.309C126.847,28.477 127.064,28.61 127.316,28.708C127.569,28.792 127.842,28.834 128.136,28.834C128.515,28.834 128.879,28.757 129.23,28.603C129.58,28.435 129.916,28.19 130.239,27.867C130.485,27.632 130.723,27.351 130.954,27.026L130.954,22.95ZM135.066,19.541L139.019,19.541C139.075,19.541 139.117,19.555 139.145,19.583C139.173,19.598 139.194,19.619 139.208,19.647C139.236,19.675 139.25,19.717 139.25,19.773L139.25,27.657C139.25,27.853 139.264,28.015 139.292,28.141C139.32,28.253 139.376,28.358 139.461,28.456C139.545,28.526 139.643,28.582 139.755,28.624C139.867,28.652 140.014,28.666 140.196,28.666L141.164,28.666L141.164,30.538C141.164,30.608 141.143,30.664 141.1,30.706C141.058,30.748 141.002,30.769 140.932,30.769L139.839,30.769C139.348,30.769 138.921,30.706 138.556,30.58C138.206,30.453 137.912,30.271 137.673,30.033C137.449,29.795 137.281,29.5 137.169,29.15C137.071,28.785 137.022,28.379 137.022,27.93L137.022,21.644L135.298,21.644C135.228,21.644 135.171,21.623 135.129,21.581C135.087,21.539 135.066,21.483 135.066,21.413L135.066,19.541ZM138.813,15L137.011,15L137.011,16.802C137.011,17.015 137.011,17.121 137.077,17.187C137.143,17.253 137.249,17.253 137.461,17.253L139.264,17.253L139.264,15.451C139.264,15.238 139.264,15.132 139.198,15.066C139.132,15 139.025,15 138.813,15Z" style="fill:rgb(224,9,95);"/>
        </g>
    </g>
</svg>
