<?xml version="1.0" encoding="UTF-8" standalone="no"?>
<!DOCTYPE svg PUBLIC "-//W3C//DTD SVG 1.1//EN" "http://www.w3.org/Graphics/SVG/1.1/DTD/svg11.dtd">
<svg width="100%" height="100%" viewBox="0 0 108 48" version="1.1" xmlns="http://www.w3.org/2000/svg" xmlns:xlink="http://www.w3.org/1999/xlink" xml:space="preserve" xmlns:serif="http://www.serif.com/" style="fill-rule:evenodd;clip-rule:evenodd;stroke-miterlimit:10;">
    <path d="M24,46C11.85,46 2,36.15 2,24C2,11.85 11.85,2 24,2M12.666,37.596C5.169,31.306 4.192,20.131 10.482,12.634C16.772,5.137 27.948,4.16 35.445,10.45M17.665,35.89C11.103,32.426 8.591,24.296 12.055,17.734C15.52,11.17 23.648,8.659 30.212,12.124M24,33.157C18.977,33.157 14.844,29.024 14.844,24C14.844,18.977 18.977,14.844 24,14.844" style="fill:none;fill-rule:nonzero;stroke:rgb(241,90,41);stroke-width:3.09px;"/>
    <path d="M26.829,21.44C26.501,21.087 26.123,20.784 25.707,20.54C25.344,20.324 24.931,20.209 24.509,20.205C23.949,20.205 23.447,20.308 23.006,20.513C22.563,20.72 22.186,20.993 21.871,21.337C21.556,21.679 21.313,22.082 21.156,22.52C20.995,22.965 20.913,23.435 20.914,23.908C20.914,24.388 20.995,24.852 21.156,25.297C21.319,25.743 21.556,26.137 21.871,26.48C22.186,26.823 22.564,27.097 23.006,27.304C23.447,27.509 23.949,27.612 24.509,27.612C24.985,27.612 25.427,27.512 25.835,27.316C26.247,27.116 26.605,26.82 26.88,26.454L28.92,28.666C28.614,28.974 28.26,29.241 27.861,29.464C27.12,29.877 26.314,30.159 25.478,30.299C25.104,30.359 24.781,30.389 24.509,30.389C23.621,30.394 22.74,30.238 21.909,29.927C21.123,29.636 20.403,29.19 19.794,28.614C19.189,28.035 18.708,27.34 18.379,26.57C18.03,25.772 17.855,24.886 17.855,23.908C17.855,22.932 18.03,22.044 18.379,21.247C18.707,20.477 19.189,19.781 19.794,19.202C20.404,18.627 21.123,18.181 21.909,17.89C22.74,17.579 23.621,17.422 24.509,17.427C25.29,17.427 26.077,17.578 26.867,17.877C27.663,18.181 28.376,18.671 28.945,19.305L26.829,21.44Z" style="fill:rgb(255,242,238);fill-rule:nonzero;"/>
    <path d="M37.943,22.674C37.927,21.764 37.645,21.05 37.101,20.526C36.557,20.004 35.802,19.742 34.834,19.742C33.916,19.742 33.188,20.008 32.654,20.539C32.118,21.071 31.791,21.782 31.672,22.674L37.943,22.674ZM31.672,24.988C31.773,25.914 32.131,26.634 32.743,27.148C33.354,27.663 34.093,27.921 34.96,27.921C35.725,27.921 36.366,27.762 36.885,27.444C37.405,27.127 37.866,26.722 38.249,26.249L40.442,27.921C39.728,28.811 38.928,29.447 38.045,29.823C37.167,30.199 36.221,30.392 35.265,30.389C34.377,30.394 33.496,30.237 32.665,29.926C31.879,29.636 31.159,29.19 30.55,28.614C29.946,28.035 29.464,27.34 29.135,26.57C28.787,25.773 28.613,24.886 28.613,23.908C28.613,22.931 28.787,22.044 29.136,21.246C29.465,20.477 29.946,19.781 30.55,19.202C31.16,18.627 31.88,18.181 32.666,17.89C33.497,17.579 34.378,17.422 35.266,17.427C36.116,17.427 36.894,17.577 37.598,17.877C38.304,18.177 38.908,18.611 39.408,19.177C39.91,19.742 40.301,20.44 40.581,21.272C40.862,22.105 41.001,23.059 41.001,24.139L41.001,24.989L31.672,24.989L31.672,24.988ZM42.328,17.736L45.387,17.736L45.387,19.69L45.437,19.69C45.777,18.97 46.263,18.414 46.892,18.018C47.519,17.624 48.242,17.428 49.058,17.428C49.244,17.428 49.428,17.444 49.606,17.478C49.784,17.512 49.966,17.556 50.154,17.608L50.154,20.59C49.906,20.523 49.655,20.467 49.402,20.423C49.162,20.38 48.919,20.359 48.675,20.358C47.962,20.358 47.389,20.491 46.955,20.758C46.522,21.024 46.191,21.328 45.961,21.67C45.731,22.014 45.578,22.356 45.502,22.7C45.425,23.042 45.387,23.3 45.387,23.47L45.387,30.08L42.328,30.08L42.328,17.736ZM59.482,22.674C59.464,21.764 59.184,21.05 58.64,20.526C58.097,20.004 57.341,19.742 56.373,19.742C55.455,19.742 54.727,20.008 54.193,20.539C53.657,21.071 53.33,21.782 53.211,22.674L59.482,22.674ZM53.212,24.988C53.312,25.914 53.67,26.634 54.282,27.148C54.893,27.663 55.632,27.921 56.499,27.921C57.264,27.921 57.905,27.762 58.424,27.444C58.944,27.127 59.405,26.722 59.788,26.249L61.981,27.921C61.267,28.811 60.467,29.447 59.584,29.823C58.706,30.199 57.76,30.392 56.804,30.389C55.917,30.394 55.036,30.237 54.205,29.926C53.418,29.636 52.699,29.19 52.089,28.614C51.485,28.035 51.004,27.339 50.675,26.57C50.326,25.773 50.152,24.886 50.152,23.908C50.152,22.931 50.326,22.044 50.675,21.246C51.023,20.449 51.495,19.767 52.089,19.202C52.699,18.627 53.419,18.181 54.205,17.89C55.036,17.579 55.917,17.422 56.805,17.427C57.655,17.427 58.433,17.577 59.137,17.877C59.843,18.177 60.447,18.611 60.947,19.177C61.448,19.742 61.84,20.44 62.12,21.272C62.402,22.105 62.541,23.059 62.541,24.139L62.541,24.989L53.211,24.989L53.212,24.988ZM73.506,23.908C73.506,23.428 73.425,22.965 73.264,22.52C73.101,22.073 72.864,21.68 72.55,21.336C72.23,20.99 71.844,20.71 71.415,20.513C70.973,20.308 70.472,20.205 69.911,20.205C69.351,20.205 68.85,20.308 68.407,20.513C67.545,20.903 66.877,21.628 66.559,22.52C66.397,22.965 66.315,23.435 66.317,23.908C66.317,24.388 66.397,24.851 66.559,25.298C66.877,26.189 67.544,26.914 68.407,27.303C68.85,27.508 69.35,27.612 69.911,27.612C70.429,27.62 70.943,27.514 71.415,27.302C72.276,26.911 72.943,26.187 73.263,25.297C73.425,24.851 73.506,24.388 73.506,23.907L73.506,23.908ZM63.359,10.638L66.419,10.638L66.419,19.304L66.496,19.304C66.648,19.099 66.843,18.89 67.081,18.675C67.32,18.461 67.609,18.259 67.948,18.071C68.288,17.881 68.678,17.727 69.121,17.608C69.562,17.488 70.073,17.428 70.651,17.428C71.517,17.428 72.315,17.594 73.047,17.928C73.761,18.251 74.399,18.72 74.92,19.304C75.439,19.887 75.842,20.574 76.13,21.363C76.42,22.151 76.564,22.999 76.564,23.908C76.564,24.817 76.429,25.666 76.156,26.455C75.901,27.215 75.493,27.915 74.958,28.512C74.425,29.1 73.774,29.569 73.047,29.888C72.299,30.222 71.457,30.39 70.523,30.39C69.688,30.396 68.862,30.22 68.102,29.875C67.352,29.532 66.758,28.984 66.317,28.228L66.267,28.228L66.267,30.08L63.359,30.08L63.359,10.638ZM77.886,17.736L80.945,17.736L80.945,19.69L80.996,19.69C81.336,18.97 81.822,18.414 82.45,18.018C83.078,17.624 83.802,17.428 84.617,17.428C84.803,17.428 84.987,17.444 85.164,17.478C85.343,17.512 85.525,17.556 85.714,17.608L85.714,20.59C85.465,20.523 85.214,20.467 84.96,20.423C84.72,20.38 84.477,20.359 84.234,20.358C83.52,20.358 82.947,20.491 82.514,20.758C82.08,21.024 81.749,21.328 81.52,21.67C81.29,22.014 81.137,22.356 81.06,22.7C80.984,23.042 80.946,23.3 80.946,23.47L80.946,30.08L77.886,30.08L77.886,17.736ZM93.742,24.551L93.105,24.551C92.68,24.551 92.205,24.569 91.677,24.603C91.173,24.634 90.674,24.715 90.187,24.847C89.719,24.977 89.323,25.165 89.001,25.413C88.678,25.662 88.516,26.009 88.516,26.454C88.516,26.746 88.58,26.99 88.707,27.187C88.835,27.385 89.001,27.552 89.204,27.689C89.408,27.826 89.638,27.925 89.893,27.984C90.149,28.045 90.403,28.074 90.658,28.074C91.712,28.074 92.488,27.822 92.991,27.316C93.491,26.81 93.742,26.119 93.742,25.246L93.742,24.551ZM93.922,28.384L93.844,28.384C93.403,29.087 92.841,29.597 92.162,29.914C91.459,30.236 90.693,30.398 89.919,30.389C89.363,30.39 88.809,30.312 88.274,30.159C87.76,30.015 87.277,29.779 86.846,29.464C86.43,29.156 86.087,28.761 85.84,28.306C85.585,27.844 85.457,27.303 85.457,26.686C85.457,26.016 85.577,25.448 85.815,24.976C86.043,24.516 86.369,24.112 86.77,23.792C87.17,23.475 87.632,23.222 88.16,23.034C88.694,22.843 89.244,22.701 89.804,22.609C90.373,22.516 90.947,22.455 91.524,22.429C92.068,22.404 92.612,22.392 93.157,22.391L93.921,22.391L93.921,22.057C93.921,21.285 93.657,20.707 93.13,20.321C92.604,19.935 91.932,19.742 91.117,19.742C89.904,19.732 88.734,20.194 87.854,21.029L86.248,19.407C86.909,18.717 87.726,18.197 88.631,17.89C89.538,17.582 90.49,17.426 91.448,17.427C92.315,17.427 93.045,17.527 93.641,17.723C94.235,17.921 94.727,18.174 95.119,18.482C95.509,18.79 95.811,19.146 96.024,19.549C96.236,19.953 96.389,20.359 96.484,20.771C96.576,21.182 96.631,21.581 96.648,21.967C96.666,22.352 96.674,22.692 96.674,22.982L96.674,30.081L93.921,30.081L93.921,28.384L93.922,28.384ZM104.962,21.156C104.368,20.316 103.568,19.896 102.566,19.896C102.158,19.896 101.759,19.999 101.368,20.204C100.977,20.411 100.782,20.744 100.782,21.207C100.782,21.585 100.943,21.86 101.266,22.031C101.589,22.202 101.996,22.348 102.489,22.468C102.982,22.588 103.513,22.712 104.083,22.841C104.652,22.969 105.183,23.167 105.676,23.431C106.169,23.698 106.577,24.061 106.899,24.526C107.222,24.988 107.383,25.622 107.383,26.428C107.383,27.166 107.226,27.788 106.912,28.293C106.606,28.79 106.187,29.209 105.689,29.515C105.166,29.832 104.593,30.058 103.994,30.183C103.374,30.319 102.742,30.388 102.107,30.389C101.156,30.389 100.28,30.252 99.481,29.978C98.682,29.703 97.969,29.206 97.34,28.486L99.38,26.556C99.77,27.003 100.191,27.366 100.641,27.651C101.091,27.933 101.64,28.074 102.285,28.074C102.507,28.074 102.736,28.049 102.973,27.997C103.212,27.946 103.432,27.86 103.636,27.739C103.84,27.62 104.006,27.471 104.133,27.291C104.261,27.111 104.325,26.901 104.325,26.659C104.325,26.232 104.164,25.914 103.84,25.709C103.517,25.503 103.11,25.336 102.617,25.206C102.09,25.07 101.558,24.95 101.024,24.846C100.47,24.74 99.934,24.558 99.43,24.306C98.944,24.064 98.524,23.707 98.207,23.266C97.884,22.82 97.723,22.202 97.723,21.414C97.723,20.728 97.862,20.132 98.143,19.626C98.423,19.12 98.793,18.705 99.251,18.379C99.729,18.044 100.265,17.8 100.832,17.659C101.423,17.505 102.031,17.427 102.642,17.427C103.457,17.427 104.265,17.569 105.064,17.852C105.846,18.122 106.523,18.63 107.002,19.304L104.962,21.156Z" style="fill:rgb(255,242,238);fill-rule:nonzero;"/>
</svg>
