<?xml version="1.0" encoding="UTF-8" standalone="no"?>
<!DOCTYPE svg PUBLIC "-//W3C//DTD SVG 1.1//EN" "http://www.w3.org/Graphics/SVG/1.1/DTD/svg11.dtd">
<svg width="100%" height="100%" viewBox="0 0 325 325" version="1.1" xmlns="http://www.w3.org/2000/svg" xmlns:xlink="http://www.w3.org/1999/xlink" xml:space="preserve" xmlns:serif="http://www.serif.com/" style="fill-rule:evenodd;clip-rule:evenodd;stroke-linecap:round;stroke-linejoin:round;stroke-miterlimit:1.5;">
    <g transform="matrix(1,0,0,1,51.9276,8.60755)">
        <g>
            <g transform="matrix(1.36898,0,0,1.113,-56.4811,-14.8634)">
                <rect x="3.691" y="6.07" width="236.672" height="291.104" style="fill:white;stroke:black;stroke-width:0.8px;"/>
            </g>
            <g transform="matrix(1,0,0,1,-11.4276,3.89245)">
                <path d="M84.33,62.224C98.495,76.412 104.614,95.814 102.906,115.259C83.495,116.971 64.124,110.84 49.96,96.652C35.796,82.464 29.677,63.063 31.385,43.617C50.796,41.906 70.166,48.036 84.33,62.224Z" style="fill:rgb(210,96,51);fill-rule:nonzero;"/>
                <path d="M146.302,50.659C146.302,70.724 136.934,88.779 122,101.318C107.066,88.778 97.697,70.724 97.697,50.658C97.697,30.595 107.066,12.54 122,0C136.934,12.54 146.302,30.594 146.302,50.659Z" style="fill:rgb(239,159,50);fill-rule:nonzero;"/>
                <path d="M195.442,96.65C181.278,110.839 161.909,116.969 142.496,115.258C140.788,95.813 146.908,76.41 161.072,62.222C175.236,48.034 194.604,41.904 214.017,43.615C215.726,63.059 209.606,82.462 195.442,96.651L195.442,96.65Z" style="fill:rgb(90,113,59);fill-rule:nonzero;"/>
                <path d="M244,117.957C240.656,141.216 228.346,161.726 208.233,173.383C200.049,178.125 191.241,181.017 182.203,182.192C165.717,186.434 142.435,186.328 142.435,186.328C131.527,188.813 127.331,212.624 127.331,212.624C124.51,285.264 131.71,284.224 131.71,284.224C154.555,293.239 156.461,300 156.461,300L90.001,300C120.807,288.385 117.345,271.048 117.345,271.048C120.461,240.709 115.615,205.863 115.615,205.863C113.183,191.474 101.338,185.926 94.355,186.318C87.415,186.708 80.45,186.24 73.659,184.753C47.85,179.101 37.339,169.774 36.551,169.049C17.97,158.516 5.308,140.95 0,120.904C20.424,112.077 43.85,111.702 64.754,121.872C72.447,125.615 79.974,129.562 86.091,135.592C90.797,140.231 95.23,145.14 99.367,150.293C103.406,155.324 106.039,160.338 108.484,166.307C110.779,171.908 112.731,177.652 114.509,183.437C115.254,185.861 115.965,188.295 116.641,190.739C116.869,191.566 117.392,192.668 117.392,193.539L117.392,112.491L122.354,106.352L127.719,112.246L127.728,193.901C132.228,172.924 144.516,154.027 144.516,154.027C150.4,147.439 159.917,133.572 166.179,130.209C169.857,126.847 173.888,123.891 178.2,121.393C198.315,109.736 222.2,109.268 243.998,117.957L244,117.957Z" style="fill:rgb(44,71,51);fill-rule:nonzero;"/>
            </g>
        </g>
    </g>
</svg>
