<?xml version="1.0" encoding="UTF-8" standalone="no"?>
<!DOCTYPE svg PUBLIC "-//W3C//DTD SVG 1.1//EN" "http://www.w3.org/Graphics/SVG/1.1/DTD/svg11.dtd">
<svg width="100%" height="100%" viewBox="0 0 512 510" version="1.1" xmlns="http://www.w3.org/2000/svg" xmlns:xlink="http://www.w3.org/1999/xlink" xml:space="preserve" xmlns:serif="http://www.serif.com/" style="fill-rule:evenodd;clip-rule:evenodd;stroke-linejoin:round;stroke-miterlimit:2;">
    <path d="M512,115.61L512,394.03C512,457.837 460.197,509.64 396.39,509.64L115.61,509.64C51.803,509.64 0,457.837 0,394.03L0,115.61C0,51.803 51.803,0 115.61,0L396.39,0C460.197,0 512,51.803 512,115.61ZM375.862,68.437L270.527,188.829L179.472,68.437L47.595,68.437L205.164,274.506L55.823,445.203L119.771,445.203L235.05,313.504L335.784,445.203L464.405,445.203L300.148,228.04L439.774,68.437L375.862,68.437ZM353.425,406.948L122.23,104.692L160.238,104.692L388.85,406.948L353.425,406.948Z" style="fill:white;"/>
</svg>
