<?xml version="1.0" encoding="UTF-8" standalone="no"?>
<!DOCTYPE svg PUBLIC "-//W3C//DTD SVG 1.1//EN" "http://www.w3.org/Graphics/SVG/1.1/DTD/svg11.dtd">
<svg width="100%" height="100%" viewBox="0 0 128 128" version="1.1" xmlns="http://www.w3.org/2000/svg" xmlns:xlink="http://www.w3.org/1999/xlink" xml:space="preserve" xmlns:serif="http://www.serif.com/" style="fill-rule:evenodd;clip-rule:evenodd;stroke-linejoin:round;stroke-miterlimit:2;">
    <g>
        <clipPath id="_clip1">
            <path d="M128,12L128,116C128,122.623 122.623,128 116,128L12,128C5.377,128 0,122.623 0,116L0,12C0,5.377 5.377,0 12,0L116,0C122.623,0 128,5.377 128,12Z"/>
        </clipPath>
        <g clip-path="url(#_clip1)">
            <path d="M128,23L16.657,23L0,106L128,106L128,128L0,128L0,0L128,0L128,23Z" style="fill:rgb(16,16,16);fill-rule:nonzero;"/>
            <path d="M0,13C0,5.82 5.82,0 13,0L115,0C122.18,0 128,5.82 128,13L128,115C128,122.18 122.18,128 115,128L13,128C5.82,128 0,122.18 0,115L0,13Z" style="fill:white;fill-rule:nonzero;"/>
            <path d="M115,123L115,128L13,128L13,123L115,123ZM123,115L123,13C123,8.582 119.418,5 115,5L13,5C8.582,5 5,8.582 5,13L5,115C5,119.418 8.582,123 13,123L13,128C5.933,128 0.182,122.36 0.004,115.336L0,115L0,13C0,5.82 5.82,0 13,0L115,0C122.18,0 128,5.82 128,13L128,115C128,122.067 122.36,127.818 115.336,127.996L115,128L115,123C119.418,123 123,119.418 123,115Z" style="fill:rgb(218,41,28);fill-rule:nonzero;"/>
            <g transform="matrix(1.10526,0,0,1.10526,-11.4839,-6.3656)">
                <path d="M124.483,31.427L124.483,99.577L14.419,99.577L28.283,31.427L124.483,31.427Z" style="fill:rgb(16,16,16);fill-rule:nonzero;"/>
                <path d="M15.826,99.053L121.043,99.053L121.043,32.947L29.079,32.947L15.826,99.053ZM11,103L25.835,29L125,29L125,103L11,103Z" style="fill:white;"/>
                <path d="M126,104L9.779,104L25.016,28L126,28L126,104ZM25.835,29L11,103L125,103L125,29L25.835,29ZM121.043,32.946L121.043,99.054L15.826,99.054L29.079,32.946L121.043,32.946ZM17.047,98.054L120.043,98.054L120.043,33.946L29.898,33.946L17.047,98.054Z" style="fill-rule:nonzero;"/>
                <path d="M48.041,82.71L39.13,82.71L37.715,90.54L29.794,90.54L39.695,41.158L47.475,41.158L57.377,90.54L49.455,90.54L48.041,82.71ZM46.697,74.95L43.585,57.242L40.473,74.95L46.697,74.95ZM74.392,41.158L82.313,41.158L72.412,90.54L64.632,90.54L54.731,41.158L62.652,41.158L68.522,74.526L74.392,41.158ZM105.463,88.212C103.388,90.141 100.654,91.105 97.259,91.105C93.959,91.105 91.224,90.141 89.055,88.212C86.698,85.861 85.519,82.78 85.519,78.971L85.519,52.727C85.519,48.918 86.698,45.837 89.055,43.486C91.224,41.558 93.959,40.593 97.259,40.593C100.654,40.593 103.388,41.558 105.463,43.486C107.821,45.743 108.999,48.824 108.999,52.727L108.999,57.101L101.22,57.101L101.22,52.727C101.22,50.987 100.89,49.811 100.229,49.2C99.617,48.636 98.626,48.353 97.259,48.353C95.939,48.353 94.972,48.636 94.359,49.2C93.652,49.859 93.298,51.034 93.298,52.727L93.298,78.971C93.298,80.664 93.652,81.84 94.359,82.498C94.972,83.062 95.939,83.345 97.259,83.345C98.626,83.345 99.617,83.062 100.229,82.498C100.89,81.887 101.22,80.711 101.22,78.971L101.22,72.622L108.999,72.622L108.999,78.971C108.999,82.874 107.821,85.955 105.463,88.212Z" style="fill:white;fill-rule:nonzero;"/>
            </g>
        </g>
    </g>
</svg>
