<svg width="128" height="128" viewBox="0 0 128 128" fill="none" xmlns="http://www.w3.org/2000/svg">
<g clip-path="url(#clip0_189_102)">
<path d="M128 23H16.6572L0 106H128V128H0V0H128V23Z" fill="#101010"/>
<path d="M0 13C0 5.8203 5.8203 0 13 0H115C122.18 0 128 5.8203 128 13V115C128 122.18 122.18 128 115 128H13C5.8203 128 0 122.18 0 115V13Z" fill="#DA291C"/>
<path d="M115 123V128H13V123H115ZM123 115V13C123 8.58172 119.418 5 115 5H13C8.58172 5 5 8.58172 5 13V115C5 119.418 8.58172 123 13 123V128C5.93261 128 0.182081 122.36 0.00390625 115.336L0 115V13C0 5.8203 5.8203 0 13 0H115C122.18 0 128 5.8203 128 13V115C128 122.067 122.36 127.818 115.336 127.996L115 128V123C119.418 123 123 119.418 123 115Z" fill="white"/>
<path d="M124.483 31.4268V99.5768H14.4189L28.2827 31.4268H124.483Z" fill="#101010"/>
<path fill-rule="evenodd" clip-rule="evenodd" d="M15.8262 99.0533L121.043 99.0533V32.9467L29.0791 32.9467L15.8262 99.0533ZM11 103L25.8354 29L125 29V103L11 103Z" fill="white"/>
<path d="M126 104H9.7793L25.0156 28H126V104ZM25.835 29L11 103H125V29H25.835ZM121.043 32.9463V99.0537H15.8262L29.0791 32.9463H121.043ZM17.0469 98.0537H120.043V33.9463H29.8984L17.0469 98.0537Z" fill="black"/>
<path d="M48.0409 82.7097H39.1296L37.7151 90.5404H29.7939L39.6954 41.1577H47.4751L57.3765 90.5404H49.4554L48.0409 82.7097ZM46.6971 74.9496L43.5852 57.2423L40.4733 74.9496H46.6971ZM74.3919 41.1577H82.3131L72.4116 90.5404H64.6319L54.7305 41.1577H62.6517L68.5218 74.5263L74.3919 41.1577ZM105.463 88.2123C103.388 90.1405 100.654 91.1047 97.2589 91.1047C93.9586 91.1047 91.2239 90.1405 89.0549 88.2123C86.6975 85.8609 85.5187 82.7802 85.5187 78.9707V52.7274C85.5187 48.9178 86.6975 45.8373 89.0549 43.4857C91.2239 41.5575 93.9586 40.5933 97.2589 40.5933C100.654 40.5933 103.388 41.5575 105.463 43.4857C107.821 45.7432 108.999 48.8238 108.999 52.7274V57.1012H101.22V52.7274C101.22 50.9872 100.89 49.8114 100.229 49.2C99.6166 48.6357 98.6264 48.3535 97.2589 48.3535C95.9389 48.3535 94.9723 48.6357 94.3592 49.2C93.652 49.8585 93.2984 51.0342 93.2984 52.7274V78.9707C93.2984 80.6638 93.652 81.8397 94.3592 82.4981C94.9723 83.0624 95.9389 83.3446 97.2589 83.3446C98.6264 83.3446 99.6166 83.0624 100.229 82.4981C100.89 81.8866 101.22 80.711 101.22 78.9707V72.6215H108.999V78.9707C108.999 82.8742 107.821 85.9548 105.463 88.2123Z" fill="white"/>
</g>
<defs>
<clipPath id="clip0_189_102">
<rect width="128" height="128" rx="12" fill="white"/>
</clipPath>
</defs>
</svg>
