<?xml version="1.0" encoding="UTF-8" standalone="no"?>
<!DOCTYPE svg PUBLIC "-//W3C//DTD SVG 1.1//EN" "http://www.w3.org/Graphics/SVG/1.1/DTD/svg11.dtd">
<svg width="100%" height="100%" viewBox="0 0 240 240" version="1.1" xmlns="http://www.w3.org/2000/svg" xmlns:xlink="http://www.w3.org/1999/xlink" xml:space="preserve" xmlns:serif="http://www.serif.com/" style="fill-rule:evenodd;clip-rule:evenodd;stroke-linejoin:round;stroke-miterlimit:2;">
    <g transform="matrix(1,0,0,1,-0.126464,-0.126464)">
        <g transform="matrix(1.39516,0,0,1.39516,-47.5879,-47.5879)">
            <path d="M120,34.2C167.354,34.2 205.8,72.646 205.8,120C205.8,167.354 167.354,205.8 120,205.8C72.646,205.8 34.2,167.354 34.2,120C34.2,72.646 72.646,34.2 120,34.2ZM158.6,85.1C151.3,81.8 143.7,79.4 135.8,78.1C134.8,79.9 133.7,82.2 132.9,84.1C124.5,82.8 116,82.8 107.6,84.1C106.7,82 105.7,80 104.6,78.1C96.7,79.4 89,81.8 81.8,85.2C67.4,106.7 63.5,127.6 65.4,148.3C73.9,154.6 83.3,159.4 93.4,162.4C95.7,159.3 97.7,156.1 99.4,152.7C96.1,151.5 93,150 90,148.2C90.8,147.6 91.5,147 92.3,146.4C110,154.8 130.6,154.8 148.3,146.4C149.1,147 149.8,147.6 150.6,148.2C147.6,150 144.4,151.5 141.1,152.7C142.8,156.1 144.8,159.3 147.1,162.4C157.2,159.3 166.7,154.6 175.1,148.3C177.3,124.3 171.1,103.5 158.6,85.1ZM138.6,135.5C133.1,135.5 128.7,130.5 128.7,124.4C128.7,118.3 133.1,113.2 138.6,113.2C144.2,113.2 148.6,118.2 148.5,124.4C148.4,130.6 144.1,135.5 138.6,135.5ZM101.8,135.5C96.3,135.5 91.9,130.5 91.9,124.4C91.9,118.3 96.3,113.2 101.8,113.2C107.4,113.2 111.8,118.2 111.8,124.4C111.7,130.5 107.4,135.5 101.8,135.5Z" style="fill:rgb(232,233,246);"/>
        </g>
    </g>
</svg>
