<svg width="56" height="64" viewBox="0 0 56 64" fill="none" xmlns="http://www.w3.org/2000/svg">
<path fill-rule="evenodd" clip-rule="evenodd" d="M45.4579 14.9916C45.9752 15.4376 46.479 15.0629 47.0416 14.8954C49.0895 14.283 55.1297 15.0912 55.1297 15.0912V63.0898H4.35742V2.63876H5.76795C5.76795 2.63876 6.17096 2.54367 6.37472 2.54367C6.57849 2.54367 6.99056 2.63876 6.99056 2.63876C6.99056 2.63876 8.66598 2.61272 9.01918 2.63876C9.09502 2.64442 9.08936 2.72027 9.17427 2.718C9.54897 2.70668 10.1535 2.86743 10.6946 2.75989C11.7633 2.54933 14.6828 2.53122 14.6828 2.53122L45.3594 2.63876C45.3594 2.63876 45.596 10.1431 45.3809 12.886C45.3685 13.0502 44.7356 14.3701 45.4579 14.9916Z" fill="#E4F1F2"/>
<path d="M55.312 13.7959L48.9182 13.6702C48.9182 13.6702 48.1869 13.6325 46.8522 13.9232C46.0869 14.0882 46.7096 12.3983 46.7096 12.3983L46.7096 2.79429C46.7096 2.79429 46.6315 2.51614 46.9643 2.46429C47.2043 2.42814 47.3311 2.79743 47.4318 2.92943C47.6571 3.22644 47.8224 3.49044 47.8224 3.49044L55.312 13.7959Z" fill="#B3D8DB"/>
<path fill-rule="evenodd" clip-rule="evenodd" d="M46.7313 40.1342H13.8391C12.9501 40.1342 12.3574 39.5682 12.3574 39.0022C12.3574 38.4361 12.9501 37.8701 13.8391 37.8701H46.8795C47.6203 37.8701 48.3611 38.4361 48.3611 39.0022C48.3611 39.5682 47.6203 40.1342 46.7313 40.1342Z" fill="#257181"/>
<path fill-rule="evenodd" clip-rule="evenodd" d="M46.7313 46.3598H13.8391C12.9501 46.3598 12.3574 45.7938 12.3574 45.2277C12.3574 44.6617 12.9501 44.0957 13.8391 44.0957H46.8795C47.6203 44.0957 48.3611 44.6617 48.3611 45.2277C48.3611 45.7938 47.6203 46.3598 46.7313 46.3598Z" fill="#257181"/>
<path fill-rule="evenodd" clip-rule="evenodd" d="M46.7279 51.839H13.8389C12.95 51.839 12.3574 51.2731 12.3574 50.7071C12.3574 50.1412 12.95 49.5752 13.8389 49.5752H46.876C47.6168 49.5752 48.3575 50.1412 48.3575 50.7071C48.3575 51.2731 47.6168 51.839 46.7279 51.839Z" fill="#257181"/>
<path fill-rule="evenodd" clip-rule="evenodd" d="M46.1189 58.5864H29.5246C28.6356 58.5864 28.043 58.0203 28.043 57.4543C28.043 56.7751 28.6356 56.3223 29.5246 56.3223H46.2671C47.0079 56.3223 47.7487 56.7751 47.7487 57.4543C47.6005 58.1335 47.0079 58.5864 46.1189 58.5864Z" fill="#257181"/>
<path fill-rule="evenodd" clip-rule="evenodd" d="M27.7463 9.66252H14.5368C13.8292 9.66252 13.3574 9.0965 13.3574 8.53048C13.3574 7.85125 13.8292 7.39844 14.5368 7.39844H27.8643C28.454 7.39844 29.0437 7.85125 29.0437 8.53048C28.9257 9.20971 28.454 9.66252 27.7463 9.66252Z" fill="#76A8AB"/>
<path fill-rule="evenodd" clip-rule="evenodd" d="M41.7463 9.66252H36.5368C35.8292 9.66252 35.3574 9.0965 35.3574 8.53048C35.3574 7.85125 35.8292 7.39844 36.5368 7.39844H41.8643C42.454 7.39844 43.0437 7.85125 43.0437 8.53048C42.9257 9.20971 42.454 9.66252 41.7463 9.66252Z" fill="#76A8AB"/>
<path d="M5.63145 2.62766C5.54879 2.776 6.16199 2.42284 6.452 2.49673C7.12327 2.66793 7.11949 2.62778 7.11949 2.62778C7.3401 2.32698 7.51909 2.19679 8.21245 2.2389C8.64901 2.26575 9.20411 2.48238 9.2461 2.84928L10.1011 12.4655C10.1438 12.8311 10.0378 13.1992 9.80683 13.4856C9.72382 13.5929 9.62597 13.6875 9.51555 13.7668C8.89253 14.2144 8.01115 14.0704 7.56321 13.4468C7.4268 13.2569 7.3407 13.0357 7.31144 12.8036L6.7279 5.44183C6.68122 5.0864 6.35261 4.83159 5.99725 4.87499C5.64182 4.92168 5.38701 5.25028 5.43041 5.60564L6.01628 12.982C6.07315 13.4304 6.24135 13.857 6.50497 14.224C7.37402 15.4338 9.08476 15.7146 10.2945 14.8456C11.1027 14.2651 11.5292 13.2851 11.4039 12.2979L10.5489 2.68163C10.3463 2.02015 9.74799 1.4496 9.14991 1.29134C8.35753 1.08099 6.6701 0.778524 5.63145 2.62766Z" fill="#B8C4C7"/>
<path fill-rule="evenodd" clip-rule="evenodd" d="M25.8265 22.2186C25.481 21.917 24.9492 21.9508 24.6446 22.2936L24.0225 22.9206C23.6814 23.228 23.6517 23.7608 23.956 24.1044L24.7583 24.8982C24.3653 25.5151 24.0857 26.1971 23.9321 26.912L22.8044 26.9164C22.3462 26.9469 21.9936 27.3474 22.021 27.8058L22.0243 28.6885C22.0002 29.1472 22.3558 29.5452 22.8145 29.5724L23.942 29.568C24.101 30.2816 24.3859 30.9614 24.7836 31.575L23.9873 32.3759C23.6858 32.7217 23.7195 33.2537 24.0629 33.5583L24.6899 34.1812C24.9975 34.5213 25.5293 34.5504 25.8721 34.2461L26.6672 33.4454C27.2849 33.8371 27.9666 34.1167 28.6816 34.271L28.686 35.3977C28.7159 35.8558 29.1158 36.2091 29.5742 36.1819L30.4589 36.1786C30.9173 36.2022 31.3145 35.8457 31.3406 35.3875L31.3365 34.2609C32.05 34.101 32.7296 33.8165 33.3437 33.4199L34.1457 34.2142C34.4907 34.5158 35.0222 34.4825 35.3268 34.1403L35.9497 33.5127C36.1271 33.354 36.2285 33.1268 36.2285 32.8887C36.2285 32.6824 36.1524 32.4833 36.0148 32.3297L35.2153 31.5351C35.6075 30.9182 35.8871 30.2365 36.0409 29.5219L37.1678 29.5172C37.6265 29.4873 37.9797 29.086 37.9514 28.6273L37.9481 27.7448C37.9729 27.2861 37.6166 26.8879 37.1579 26.8615L36.0313 26.8659C35.872 26.152 35.5874 25.4722 35.1903 24.8581L35.984 24.0583C36.2878 23.7133 36.2543 23.1794 35.9096 22.875L35.2817 22.2529C34.9749 21.9126 34.4432 21.883 34.1004 22.187L33.3044 22.989C32.6878 22.596 32.0058 22.3161 31.2909 22.1623L31.2865 21.0356C31.2571 20.5778 30.8572 20.2243 30.399 20.2515L29.5141 20.2548C29.0554 20.2311 28.658 20.5874 28.6316 21.0458L28.6357 22.1725C27.9219 22.3318 27.2418 22.6169 26.6277 23.0143L25.8265 22.2186ZM29.9862 24.762C31.493 24.762 33.4409 26.7099 33.4409 28.2167C33.4409 29.7235 31.493 31.6714 29.9862 31.6714C28.4794 31.6714 26.5315 29.7235 26.5315 28.2167C26.5315 26.7099 28.4794 24.762 29.9862 24.762Z" fill="#257181"/>
<path fill-rule="evenodd" clip-rule="evenodd" d="M29.987 22.5059C33.1854 22.5059 35.7104 25.115 35.7104 28.2292C35.7104 31.3434 33.1012 33.9526 29.987 33.9526C26.8729 33.9526 24.2637 31.3434 24.2637 28.2292C24.2637 25.115 26.7887 22.5059 29.987 22.5059Z" fill="#257181"/>
<path d="M29.9871 33.0132C32.6759 33.0132 34.7671 30.8224 34.7671 28.2332C34.7671 25.5444 32.5763 23.4531 29.9871 23.4531C27.2983 23.4531 25.207 25.644 25.207 28.2332C25.207 30.8224 27.2983 33.0132 29.9871 33.0132ZM27.4975 27.2373H28.9912V25.7436C28.9912 25.1461 29.4892 24.7477 29.9871 24.7477C30.485 24.7477 30.9829 25.1461 30.9829 25.7436V27.2373H32.4767C32.9746 27.2373 33.4726 27.7353 33.4726 28.2332C33.4726 28.7311 32.9746 29.229 32.4767 29.229H30.9829V30.7228C30.9829 31.3203 30.485 31.7186 29.9871 31.7186C29.4892 31.7186 28.9912 31.3203 28.9912 30.7228V29.229H27.4975C26.9 29.229 26.5016 28.7311 26.5016 28.2332C26.5016 27.7353 26.9996 27.2373 27.4975 27.2373Z" fill="#E4F1F2"/>
<path fill-rule="evenodd" clip-rule="evenodd" d="M18.3574 21.3798C18.3574 20.7219 18.8522 20.1836 19.4568 20.1836C20.0615 20.1836 20.5562 20.7219 20.5562 21.3798C20.5562 22.0377 20.0615 22.5759 19.4568 22.5759C18.8522 22.5759 18.3574 22.0377 18.3574 21.3798Z" fill="#3699AE"/>
<path fill-rule="evenodd" clip-rule="evenodd" d="M21.7536 19.7232C21.5063 19.1192 21.8262 18.5468 22.3088 18.1443C26.59 14.5749 33.2321 14.7053 37.5082 18.7244L37.085 16.8883C36.9365 16.2484 37.2938 15.5964 37.8875 15.435C38.4757 15.2735 39.0749 15.6622 39.2233 16.3082L40.3227 21.0928C40.4382 21.5892 40.2513 22.1036 39.8555 22.3847C39.6631 22.5103 39.4542 22.5761 39.2453 22.5761C39.0089 22.5761 38.7594 22.5025 38.5692 22.3249C33.2535 17.362 28.1176 16.5468 23.2049 20.3273C22.7107 20.7077 22.001 20.3273 21.7536 19.7232Z" fill="#3699AE"/>
</svg>
