<?xml version="1.0" encoding="UTF-8" standalone="no"?>
<!DOCTYPE svg PUBLIC "-//W3C//DTD SVG 1.1//EN" "http://www.w3.org/Graphics/SVG/1.1/DTD/svg11.dtd">
<svg width="100%" height="100%" viewBox="0 0 62 58" version="1.1" xmlns="http://www.w3.org/2000/svg" xmlns:xlink="http://www.w3.org/1999/xlink" xml:space="preserve" xmlns:serif="http://www.serif.com/" style="fill-rule:evenodd;clip-rule:evenodd;stroke-linejoin:round;stroke-miterlimit:2;">
    <g transform="matrix(1,0,0,1,-0.0756788,-0.0498104)">
        <g transform="matrix(1,0,0,1,-0.0756788,-0.0498104)">
            <g transform="matrix(21.2796,0,0,20.4695,-0.886472,-0.212051)">
                <g transform="matrix(1.5903,0,0,1.65323,-0.0437405,0.0151622)">
                    <path d="M1.128,1.568L0.418,1.568L0.417,1.568L0.417,1.568L0.417,1.568L0.416,1.568L0.414,1.568L0.412,1.567C0.409,1.566 0.406,1.565 0.404,1.562L0.203,1.361C0.198,1.357 0.196,1.351 0.197,1.346L0.197,0.343C0.197,0.332 0.206,0.323 0.217,0.323L0.347,0.323L0.347,0.224L0.202,0.224C0.145,0.224 0.098,0.271 0.098,0.328L0.098,1.563C0.098,1.62 0.145,1.667 0.202,1.667L1.209,1.667C1.237,1.667 1.263,1.655 1.282,1.636C1.277,1.632 1.273,1.627 1.27,1.618C1.264,1.601 1.262,1.578 1.259,1.558L1.258,1.555L1.258,1.555L1.258,1.555L1.257,1.555L1.257,1.555L1.257,1.555L1.257,1.555L1.256,1.555L1.256,1.555L1.256,1.554L1.256,1.554L1.255,1.554L1.255,1.554L1.254,1.554L1.254,1.554L1.254,1.554L1.254,1.554L1.253,1.554L1.253,1.554L1.253,1.553L1.253,1.553L1.251,1.553L1.251,1.553L1.249,1.552L1.249,1.552L1.248,1.552L1.248,1.552L1.248,1.552L1.248,1.552L1.247,1.552L1.247,1.552L1.247,1.551L1.247,1.551L1.246,1.551L1.246,1.551L1.243,1.55L1.243,1.55L1.242,1.549L1.242,1.549L1.239,1.548L1.239,1.548L1.238,1.548L1.238,1.548L1.235,1.547L1.235,1.547L1.235,1.546L1.235,1.546L1.233,1.546L1.233,1.546L1.232,1.545L1.232,1.545L1.231,1.545L1.231,1.545L1.231,1.545L1.231,1.545L1.23,1.544L1.23,1.544L1.23,1.544L1.23,1.544L1.229,1.544L1.229,1.544L1.228,1.544L1.228,1.544L1.228,1.543L1.228,1.543L1.227,1.543L1.227,1.543L1.227,1.543L1.227,1.543L1.226,1.542L1.226,1.542L1.226,1.542L1.226,1.542L1.225,1.542L1.225,1.542L1.225,1.542L1.225,1.542L1.224,1.541L1.224,1.541L1.223,1.541L1.223,1.541L1.223,1.541L1.223,1.541L1.222,1.54L1.222,1.54L1.222,1.54L1.222,1.54L1.211,1.548C1.177,1.572 1.162,1.583 1.148,1.58L1.148,1.58C1.146,1.58 1.144,1.579 1.142,1.578L1.137,1.575C1.134,1.573 1.132,1.571 1.128,1.568L1.128,1.568ZM0.347,0.184L0.347,0.143C0.347,0.132 0.356,0.123 0.367,0.123L0.53,0.123C0.53,0.11 0.531,0.096 0.531,0.082C0.531,0.037 0.567,0 0.612,0L0.798,0C0.843,0 0.88,0.037 0.88,0.082C0.88,0.096 0.881,0.11 0.881,0.123L1.043,0.123C1.054,0.123 1.063,0.132 1.063,0.143L1.063,0.184L1.209,0.184C1.288,0.184 1.352,0.249 1.352,0.328L1.352,1.009C1.356,1.009 1.36,1.009 1.364,1.009C1.4,1.009 1.399,1.056 1.406,1.095C1.419,1.099 1.431,1.104 1.443,1.11C1.523,1.054 1.509,1.054 1.578,1.124C1.604,1.149 1.57,1.182 1.548,1.214C1.554,1.226 1.559,1.239 1.563,1.251C1.659,1.268 1.648,1.258 1.648,1.357C1.648,1.392 1.602,1.392 1.563,1.399C1.559,1.412 1.554,1.424 1.548,1.436C1.604,1.516 1.603,1.501 1.533,1.571C1.508,1.596 1.474,1.562 1.443,1.54C1.431,1.546 1.419,1.551 1.406,1.555C1.399,1.595 1.4,1.641 1.364,1.641C1.351,1.641 1.34,1.641 1.33,1.641C1.311,1.671 1.26,1.707 1.209,1.707L0.202,1.707C0.123,1.707 0.058,1.642 0.058,1.563L0.058,0.328C0.058,0.249 0.123,0.184 0.202,0.184L0.347,0.184L0.347,0.184ZM1.063,0.224L1.063,0.323L1.194,0.323C1.205,0.323 1.214,0.332 1.214,0.343L1.214,1.104C1.216,1.106 1.219,1.108 1.222,1.11L1.222,1.11L1.222,1.11L1.223,1.109L1.223,1.109L1.223,1.109L1.223,1.109L1.224,1.109L1.224,1.109L1.225,1.108L1.225,1.108L1.225,1.108L1.225,1.108L1.226,1.108L1.226,1.108L1.226,1.108L1.226,1.108L1.227,1.107L1.227,1.107L1.228,1.107L1.228,1.107L1.231,1.105L1.231,1.105C1.233,1.104 1.24,1.101 1.24,1.101L1.24,1.101L1.241,1.101L1.241,1.101L1.243,1.1L1.243,1.1L1.244,1.1L1.244,1.1L1.245,1.099L1.245,1.099L1.246,1.099L1.246,1.099L1.247,1.099L1.247,1.099L1.248,1.098L1.248,1.098L1.248,1.098L1.248,1.098L1.25,1.098L1.25,1.098L1.251,1.097L1.251,1.097L1.251,1.097L1.251,1.097L1.252,1.097L1.252,1.097L1.253,1.097L1.253,1.097L1.255,1.096L1.255,1.096L1.256,1.095L1.256,1.095L1.257,1.095L1.257,1.095L1.257,1.095L1.257,1.095L1.258,1.095L1.258,1.095L1.258,1.095L1.258,1.095L1.259,1.089C1.265,1.057 1.266,1.036 1.274,1.024C1.28,1.012 1.291,1.009 1.312,1.009L1.312,0.328C1.312,0.271 1.266,0.224 1.209,0.224L1.063,0.224ZM1.331,1.049C1.323,1.05 1.314,1.049 1.307,1.049C1.287,1.162 1.304,1.107 1.231,1.151C1.224,1.155 1.215,1.154 1.209,1.15L1.155,1.112L1.119,1.148C1.149,1.19 1.16,1.203 1.161,1.212L1.161,1.214C1.161,1.214 1.161,1.215 1.161,1.215C1.16,1.224 1.148,1.232 1.137,1.274C1.135,1.281 1.129,1.287 1.121,1.288L1.056,1.3L1.056,1.35L1.061,1.351L1.061,1.351L1.066,1.352L1.066,1.352L1.071,1.353L1.071,1.353L1.075,1.354L1.076,1.354L1.08,1.354L1.08,1.354L1.084,1.355L1.084,1.355L1.088,1.356L1.088,1.356L1.091,1.356L1.091,1.356L1.095,1.357L1.095,1.357L1.098,1.357L1.098,1.357L1.101,1.358L1.101,1.358L1.104,1.358L1.104,1.358L1.107,1.359L1.107,1.359L1.109,1.359L1.109,1.359L1.111,1.36L1.111,1.36L1.114,1.36L1.114,1.36L1.116,1.361L1.116,1.361L1.118,1.361L1.118,1.361L1.119,1.362L1.119,1.362L1.123,1.362L1.123,1.362L1.124,1.363L1.124,1.363C1.143,1.369 1.13,1.378 1.158,1.427C1.159,1.429 1.16,1.432 1.161,1.435L1.161,1.439L1.161,1.439C1.16,1.443 1.159,1.446 1.157,1.449L1.119,1.502C1.129,1.512 1.142,1.523 1.15,1.533L1.155,1.538C1.249,1.472 1.198,1.499 1.281,1.52C1.287,1.522 1.291,1.525 1.294,1.53L1.295,1.533C1.295,1.533 1.296,1.535 1.296,1.536L1.307,1.601L1.358,1.601C1.377,1.488 1.36,1.543 1.434,1.499C1.441,1.495 1.449,1.496 1.456,1.5L1.51,1.538L1.546,1.502C1.48,1.409 1.506,1.459 1.528,1.376C1.53,1.369 1.536,1.363 1.544,1.362L1.608,1.35L1.608,1.3C1.496,1.28 1.55,1.297 1.507,1.223C1.503,1.216 1.503,1.208 1.508,1.202L1.546,1.148L1.51,1.112C1.416,1.178 1.467,1.151 1.384,1.13C1.376,1.128 1.37,1.121 1.369,1.114L1.358,1.049L1.331,1.049ZM1.113,1.442L1.117,1.436L1.117,1.435L1.117,1.435L1.117,1.435L1.117,1.435L1.116,1.434L1.116,1.434L1.116,1.433L1.116,1.433L1.116,1.433L1.116,1.433L1.116,1.432L1.116,1.432L1.115,1.432L1.115,1.432L1.115,1.431L1.115,1.431L1.115,1.431L1.115,1.431L1.114,1.43L1.114,1.43L1.114,1.43L1.114,1.43L1.114,1.429L1.114,1.429L1.113,1.428L1.113,1.428L1.113,1.427L1.113,1.427L1.113,1.427L1.113,1.427L1.113,1.426L1.113,1.426L1.111,1.423L1.111,1.423L1.111,1.422L1.111,1.422L1.11,1.42L1.11,1.42L1.11,1.419L1.11,1.419L1.109,1.418L1.109,1.418L1.109,1.418L1.109,1.418L1.109,1.417L1.109,1.417L1.108,1.416L1.108,1.416L1.108,1.416L1.108,1.416L1.108,1.415L1.108,1.415L1.108,1.415L1.108,1.415L1.107,1.414L1.107,1.414L1.107,1.414L1.107,1.414L1.107,1.413L1.107,1.413L1.107,1.412L1.107,1.412L1.107,1.412L1.107,1.412L1.106,1.411L1.106,1.411L1.106,1.411L1.106,1.411L1.106,1.41L1.106,1.41L1.106,1.41L1.106,1.41L1.105,1.409L1.105,1.409L1.105,1.408L1.105,1.408L1.105,1.408L1.105,1.408L1.105,1.407L1.105,1.407L1.105,1.407L1.105,1.407L1.104,1.406L1.104,1.406L1.104,1.405L1.104,1.405L1.104,1.405L1.104,1.405L1.104,1.404L1.104,1.404L1.104,1.404L1.104,1.404L1.103,1.403L1.103,1.403L1.103,1.402L1.103,1.402L1.102,1.399L1.084,1.396C1.057,1.391 1.041,1.389 1.031,1.383L1.031,1.383C1.03,1.383 1.027,1.381 1.027,1.381L1.027,1.381C1.027,1.381 1.026,1.38 1.026,1.38L1.026,1.38C1.026,1.38 1.023,1.377 1.023,1.377C1.023,1.377 1.022,1.376 1.022,1.376L1.022,1.376C1.022,1.375 1.02,1.372 1.02,1.372C1.014,1.359 1.016,1.337 1.016,1.293C1.016,1.282 1.021,1.274 1.029,1.268L1.029,1.268L1.031,1.268L1.031,1.268C1.031,1.268 1.034,1.266 1.036,1.265L1.036,1.265L1.036,1.265L1.037,1.264L1.037,1.264L1.037,1.264L1.037,1.264C1.038,1.264 1.039,1.263 1.04,1.263L1.04,1.263L1.04,1.263L1.041,1.262L1.041,1.262L1.041,1.262L1.043,1.262L1.043,1.262L1.043,1.262L1.043,1.262C1.044,1.262 1.045,1.261 1.046,1.261L1.046,1.261L1.046,1.261L1.048,1.26L1.048,1.26L1.048,1.26L1.049,1.26L1.049,1.26L1.054,1.259L1.054,1.259L1.056,1.258L1.056,1.258L1.068,1.256L1.068,1.256L1.07,1.256L1.07,1.256L1.072,1.256L1.072,1.256L1.072,1.256L1.08,1.255L1.08,1.255L1.081,1.254L1.081,1.254L1.083,1.254L1.083,1.254L1.087,1.253L1.087,1.253L1.089,1.253L1.089,1.253L1.095,1.252L1.095,1.252L1.098,1.252L1.098,1.252L1.1,1.251L1.1,1.251L1.102,1.251C1.106,1.239 1.111,1.226 1.117,1.214L1.115,1.211C1.099,1.189 1.088,1.174 1.082,1.163L1.08,1.158C1.075,1.147 1.076,1.139 1.083,1.129L1.083,1.128L1.083,1.128C1.091,1.118 1.104,1.106 1.125,1.085C1.125,1.085 1.132,1.078 1.132,1.078L1.132,1.078L1.133,1.077C1.139,1.072 1.145,1.07 1.151,1.07C1.159,1.07 1.167,1.072 1.174,1.076L1.174,0.363L0.237,0.363L0.237,1.327L0.418,1.327C0.429,1.327 0.438,1.336 0.438,1.347L0.438,1.528L1.088,1.528L1.086,1.526C1.079,1.519 1.077,1.511 1.077,1.503C1.078,1.492 1.085,1.481 1.093,1.468L1.106,1.451L1.106,1.451L1.113,1.442L1.113,1.442ZM0.571,0.123L0.84,0.123C0.84,0.094 0.847,0.04 0.798,0.04L0.612,0.04C0.563,0.04 0.571,0.094 0.571,0.123ZM0.387,0.323L1.023,0.323L1.023,0.163L0.387,0.163L0.387,0.323ZM1.332,1.467C1.254,1.467 1.19,1.403 1.19,1.325C1.19,1.247 1.254,1.183 1.332,1.183C1.411,1.183 1.474,1.247 1.474,1.325C1.474,1.403 1.411,1.467 1.332,1.467ZM1.332,1.223C1.276,1.223 1.23,1.269 1.23,1.325C1.23,1.381 1.276,1.427 1.332,1.427C1.389,1.427 1.434,1.381 1.434,1.325C1.434,1.269 1.389,1.223 1.332,1.223ZM0.969,1.253L0.884,1.253C0.858,1.253 0.858,1.213 0.884,1.213L0.969,1.213C0.995,1.213 0.995,1.253 0.969,1.253ZM0.809,1.253L0.601,1.253C0.575,1.253 0.575,1.213 0.601,1.213L0.809,1.213C0.836,1.213 0.836,1.253 0.809,1.253ZM0.969,1.173C0.969,1.173 0.761,1.173 0.761,1.173C0.734,1.173 0.734,1.133 0.761,1.133L0.969,1.133C0.995,1.133 0.995,1.173 0.969,1.173ZM0.686,1.173L0.601,1.173C0.575,1.173 0.575,1.133 0.601,1.133L0.686,1.133C0.712,1.133 0.712,1.173 0.686,1.173ZM0.969,1.094L0.884,1.094C0.858,1.094 0.858,1.054 0.884,1.054L0.969,1.054C0.995,1.054 0.995,1.094 0.969,1.094ZM0.809,1.094L0.601,1.094C0.575,1.094 0.575,1.054 0.601,1.054L0.809,1.054C0.836,1.054 0.836,1.094 0.809,1.094ZM0.485,1.253L0.327,1.253C0.316,1.253 0.307,1.244 0.307,1.233L0.307,1.074C0.307,1.063 0.316,1.054 0.327,1.054L0.485,1.054C0.497,1.054 0.505,1.063 0.505,1.074L0.505,1.233C0.505,1.244 0.497,1.253 0.485,1.253ZM0.347,1.213L0.465,1.213L0.465,1.094L0.347,1.094L0.347,1.213ZM1.084,0.957L0.973,0.957C0.946,0.957 0.946,0.917 0.973,0.917L1.084,0.917C1.11,0.917 1.11,0.957 1.084,0.957ZM0.874,0.957L0.601,0.957C0.575,0.957 0.575,0.917 0.601,0.917L0.874,0.917C0.901,0.917 0.901,0.957 0.874,0.957ZM1.084,0.878L0.81,0.878C0.784,0.878 0.784,0.838 0.81,0.838L1.084,0.838C1.11,0.838 1.11,0.878 1.084,0.878ZM0.712,0.878L0.601,0.878C0.575,0.878 0.575,0.838 0.601,0.838L0.712,0.838C0.738,0.838 0.738,0.878 0.712,0.878ZM1.084,0.799L0.973,0.799C0.946,0.799 0.946,0.759 0.973,0.759L1.084,0.759C1.11,0.759 1.11,0.799 1.084,0.799ZM0.874,0.799L0.601,0.799C0.575,0.799 0.575,0.759 0.601,0.759L0.874,0.759C0.901,0.759 0.901,0.799 0.874,0.799ZM0.485,0.957L0.327,0.957C0.316,0.957 0.307,0.948 0.307,0.937L0.307,0.779C0.307,0.768 0.316,0.759 0.327,0.759L0.485,0.759C0.497,0.759 0.505,0.768 0.505,0.779L0.505,0.937C0.505,0.948 0.497,0.957 0.485,0.957ZM0.347,0.917L0.465,0.917L0.465,0.799L0.347,0.799L0.347,0.917ZM1.06,0.649L0.35,0.649C0.339,0.649 0.33,0.64 0.33,0.629L0.33,0.494C0.33,0.483 0.339,0.474 0.35,0.474L1.06,0.474C1.072,0.474 1.08,0.483 1.08,0.494L1.08,0.629C1.08,0.64 1.072,0.649 1.06,0.649ZM0.37,0.609L1.04,0.609L1.04,0.514L0.37,0.514L0.37,0.609ZM0.398,1.5L0.398,1.367L0.265,1.367L0.398,1.5Z" style="fill:rgb(35,172,192);"/>
                </g>
                <g transform="matrix(1.5903,0,0,1.65323,-0.0437405,0.0151622)">
                    <path d="M0.398,1.5L0.398,1.367L0.265,1.367L0.398,1.5Z" style="fill:rgb(214,246,248);"/>
                </g>
                <g transform="matrix(1.5903,0,0,1.65323,-0.0437405,0.0151622)">
                    <path d="M0.404,1.562L0.203,1.361C0.198,1.357 0.196,1.351 0.197,1.346L0.197,0.343C0.197,0.332 0.206,0.323 0.217,0.323L0.347,0.323L0.347,0.224L0.202,0.224C0.145,0.224 0.098,0.271 0.098,0.328L0.098,1.563C0.098,1.62 0.145,1.667 0.202,1.667L1.209,1.667C1.237,1.667 1.263,1.655 1.282,1.636C1.265,1.625 1.262,1.576 1.258,1.555L1.228,1.544L1.222,1.54L1.211,1.548C1.164,1.581 1.154,1.591 1.128,1.568L0.418,1.568C0.413,1.568 0.408,1.566 0.404,1.562L0.404,1.562Z" style="fill:rgb(214,246,248);"/>
                </g>
                <g transform="matrix(1.5903,0,0,1.65323,-0.0437405,0.0151622)">
                    <path d="M0.37,0.609L1.04,0.609L1.04,0.514L0.37,0.514L0.37,0.609Z" style="fill:rgb(214,246,248);"/>
                </g>
                <g transform="matrix(1.5903,0,0,1.65323,-0.0437405,0.0151622)">
                    <path d="M0.35,0.474L1.06,0.474C1.072,0.474 1.08,0.483 1.08,0.494L1.08,0.629C1.08,0.64 1.072,0.649 1.06,0.649L0.35,0.649C0.339,0.649 0.33,0.64 0.33,0.629L0.33,0.494C0.33,0.483 0.339,0.474 0.35,0.474ZM0.485,0.759C0.497,0.759 0.505,0.768 0.505,0.779L0.505,0.937C0.505,0.948 0.497,0.957 0.485,0.957L0.327,0.957C0.316,0.957 0.307,0.948 0.307,0.937L0.307,0.779C0.307,0.768 0.316,0.759 0.327,0.759L0.485,0.759ZM0.327,1.054L0.485,1.054C0.497,1.054 0.505,1.063 0.505,1.074L0.505,1.233C0.505,1.244 0.497,1.253 0.485,1.253L0.327,1.253C0.316,1.253 0.307,1.244 0.307,1.233L0.307,1.074C0.307,1.063 0.316,1.054 0.327,1.054ZM0.237,1.327L0.418,1.327C0.429,1.327 0.438,1.336 0.438,1.347L0.438,1.528L1.088,1.528C1.065,1.505 1.083,1.482 1.1,1.459L1.113,1.441L1.117,1.436L1.108,1.415L1.106,1.411L1.102,1.399C1.074,1.394 1.036,1.391 1.024,1.378C1.013,1.366 1.016,1.336 1.016,1.293C1.016,1.281 1.022,1.273 1.031,1.267C1.04,1.261 1.057,1.258 1.068,1.256L1.102,1.251C1.106,1.239 1.111,1.226 1.117,1.214C1.102,1.193 1.086,1.172 1.08,1.158C1.075,1.148 1.076,1.137 1.083,1.128L1.131,1.079C1.143,1.067 1.161,1.068 1.174,1.076L1.174,0.363L0.237,0.363L0.237,1.327ZM0.601,0.759L0.874,0.759C0.901,0.759 0.901,0.799 0.874,0.799L0.601,0.799C0.575,0.799 0.575,0.759 0.601,0.759ZM0.601,0.917L0.874,0.917C0.901,0.917 0.901,0.957 0.874,0.957L0.601,0.957C0.575,0.957 0.575,0.917 0.601,0.917ZM0.761,1.133L0.969,1.133C0.995,1.133 0.995,1.173 0.969,1.173L0.761,1.173C0.734,1.173 0.734,1.133 0.761,1.133ZM0.884,1.213L0.969,1.213C0.995,1.213 0.995,1.253 0.969,1.253L0.884,1.253C0.858,1.253 0.858,1.213 0.884,1.213ZM0.601,0.838L0.712,0.838C0.738,0.838 0.738,0.878 0.712,0.878L0.601,0.878C0.575,0.878 0.575,0.838 0.601,0.838ZM0.601,1.054L0.809,1.054C0.836,1.054 0.836,1.094 0.809,1.094L0.601,1.094C0.575,1.094 0.575,1.054 0.601,1.054ZM0.601,1.213L0.809,1.213C0.836,1.213 0.836,1.253 0.809,1.253L0.601,1.253C0.575,1.253 0.575,1.213 0.601,1.213ZM0.601,1.133L0.686,1.133C0.712,1.133 0.712,1.173 0.686,1.173L0.601,1.173C0.575,1.173 0.575,1.133 0.601,1.133ZM0.81,0.878C0.784,0.878 0.784,0.838 0.81,0.838L1.084,0.838C1.11,0.838 1.11,0.878 1.084,0.878L0.81,0.878ZM0.884,1.054L0.969,1.054C0.995,1.054 0.995,1.094 0.969,1.094L0.884,1.094C0.858,1.094 0.858,1.054 0.884,1.054ZM0.973,0.917L1.084,0.917C1.11,0.917 1.11,0.957 1.084,0.957L0.973,0.957C0.946,0.957 0.946,0.917 0.973,0.917ZM0.973,0.759L1.084,0.759C1.11,0.759 1.11,0.799 1.084,0.799L0.973,0.799C0.946,0.799 0.946,0.759 0.973,0.759Z" style="fill:rgb(228,241,242);"/>
                </g>
                <g transform="matrix(1.5903,0,0,1.65323,-0.0437405,0.0151622)">
                    <path d="M0.387,0.323L1.023,0.323L1.023,0.163L0.387,0.163L0.387,0.323Z" style="fill:rgb(214,246,248);"/>
                </g>
                <g transform="matrix(1.5903,0,0,1.65323,-0.0437405,0.0151622)">
                    <path d="M0.465,0.799L0.347,0.799L0.347,0.917L0.465,0.917L0.465,0.799Z" style="fill:rgb(214,246,248);"/>
                </g>
                <g transform="matrix(1.5903,0,0,1.65323,-0.0437405,0.0151622)">
                    <path d="M0.465,1.094L0.347,1.094L0.347,1.213L0.465,1.213L0.465,1.094Z" style="fill:rgb(214,246,248);"/>
                </g>
                <g transform="matrix(1.5903,0,0,1.65323,-0.0437405,0.0151622)">
                    <path d="M1.307,1.049C1.287,1.162 1.304,1.107 1.231,1.151C1.224,1.155 1.215,1.154 1.209,1.15L1.155,1.112L1.119,1.148C1.185,1.241 1.159,1.191 1.137,1.274C1.135,1.281 1.129,1.287 1.121,1.288L1.056,1.3L1.056,1.35L1.118,1.361L1.124,1.363C1.143,1.369 1.13,1.378 1.158,1.427C1.162,1.434 1.162,1.442 1.157,1.449L1.119,1.502C1.129,1.512 1.142,1.523 1.15,1.533L1.155,1.538C1.249,1.472 1.198,1.499 1.281,1.52C1.289,1.522 1.294,1.529 1.296,1.536L1.307,1.601L1.358,1.601C1.377,1.488 1.36,1.543 1.434,1.499C1.441,1.495 1.449,1.496 1.456,1.5L1.51,1.538L1.546,1.502C1.48,1.409 1.506,1.459 1.528,1.376C1.53,1.369 1.536,1.363 1.544,1.362L1.608,1.35L1.608,1.3C1.496,1.28 1.55,1.297 1.507,1.223C1.503,1.216 1.503,1.208 1.508,1.202L1.546,1.148L1.51,1.112C1.416,1.178 1.467,1.151 1.384,1.13C1.376,1.128 1.37,1.121 1.369,1.114L1.358,1.049L1.331,1.049C1.323,1.05 1.314,1.049 1.307,1.049ZM1.332,1.183C1.411,1.183 1.474,1.247 1.474,1.325C1.474,1.403 1.411,1.467 1.332,1.467C1.254,1.467 1.19,1.403 1.19,1.325C1.19,1.247 1.254,1.183 1.332,1.183Z" style="fill:rgb(214,246,248);"/>
                </g>
                <g transform="matrix(1.5903,0,0,1.65323,-0.0437405,0.0151622)">
                    <path d="M1.332,1.223C1.276,1.223 1.23,1.269 1.23,1.325C1.23,1.381 1.276,1.427 1.332,1.427C1.389,1.427 1.434,1.381 1.434,1.325C1.434,1.269 1.389,1.223 1.332,1.223ZM1.259,1.089C1.265,1.057 1.266,1.036 1.274,1.024C1.28,1.012 1.291,1.009 1.312,1.009L1.312,0.328C1.312,0.271 1.266,0.224 1.209,0.224L1.063,0.224L1.063,0.323L1.194,0.323C1.205,0.323 1.214,0.332 1.214,0.343L1.214,1.104C1.216,1.106 1.219,1.108 1.222,1.11L1.258,1.095L1.259,1.089Z" style="fill:rgb(214,246,248);"/>
                </g>
                <g transform="matrix(0.0300885,0,0,0.0312793,1.04898,0.746908)">
                    <rect x="8" y="32" width="38" height="30" style="fill:rgb(214,246,248);"/>
                    <path d="M46,40L46,54C49.364,53.677 52,50.668 52,47C52,43.332 49.364,40.323 46,40ZM8,40L8,54C4.636,53.677 2,50.668 2,47C2,43.332 4.636,40.323 8,40Z" style="fill:rgb(135,221,253);fill-rule:nonzero;"/>
                    <path d="M41,43C41,45.208 39.208,47 37,47L17,47C14.792,47 13,45.208 13,43C13,40.792 14.792,39 17,39L37,39C39.208,39 41,40.792 41,43Z" style="fill:rgb(135,221,253);"/>
                    <path d="M27,26C23.686,26 21,28.686 21,32L33,32C33,28.686 30.314,26 27,26Z" style="fill:rgb(135,221,253);fill-rule:nonzero;"/>
                    <circle cx="27" cy="15" r="5" style="fill:rgb(135,221,253);"/>
                    <path d="M38.17,29.12L40,36L47,32C55.28,32 62,25.28 62,17C62,8.72 55.28,2 47,2C38.72,2 32,8.72 32,17C32,21.98 34.43,26.39 38.17,29.12Z" style="fill:rgb(228,241,242);fill-rule:nonzero;"/>
                    <path d="M42,43C42,40.243 39.757,38 37,38L17,38C14.243,38 12,40.243 12,43C12,45.757 14.243,48 17,48L37,48C39.757,48 42,45.757 42,43ZM14,43C14,41.346 15.346,40 17,40L37,40C38.654,40 40,41.346 40,43C40,44.654 38.654,46 37,46L17,46C15.346,46 14,44.654 14,43Z" style="fill:rgb(93,125,121);fill-rule:nonzero;"/>
                    <circle cx="20" cy="43" r="1" style="fill:rgb(93,125,121);"/>
                    <circle cx="34" cy="43" r="1" style="fill:rgb(93,125,121);"/>
                    <path d="M22,56C21.448,56 21,56.448 21,57C21,57.552 21.448,58 22,58L32,58C32.552,58 33,57.552 33,57C33,56.448 32.552,56 32,56L22,56Z" style="fill:rgb(93,125,121);fill-rule:nonzero;"/>
                    <path d="M63,17C63,8.178 55.822,1 47,1C40.068,1 34.169,5.439 31.952,11.618C30.87,10.039 29.055,9 27,9C23.691,9 21,11.691 21,15C21,17.967 23.167,20.431 26,20.91L26,25.08C22.941,25.521 20.52,27.941 20.08,31L10,31C8.346,31 7,32.346 7,34L7,39.155C3.524,39.933 1,43.148 1,47C1,50.852 3.524,54.067 7,54.845L7,60C7,61.654 8.346,63 10,63L36,63C36.553,63 37,62.552 37,62C37,61.448 36.553,61 36,61L10,61C9.449,61 9,60.551 9,60L9,34C9,33.449 9.449,33 10,33L38.167,33L39.033,36.257C39.113,36.557 39.328,36.803 39.614,36.923C39.738,36.975 39.869,37 40,37C40.172,37 40.343,36.956 40.496,36.868L45,34.294L45,60C45,60.551 44.552,61 44,61L40,61C39.447,61 39,61.448 39,62C39,62.552 39.447,63 40,63L44,63C45.654,63 47,61.654 47,60L47,54.845C50.477,54.067 53,50.852 53,47C53,43.148 50.477,39.933 47,39.155L47,34C47,33.732 46.956,33.471 46.887,33.216L47.27,32.997C55.968,32.853 63,25.732 63,16.999L63,17ZM3,47C3,44.316 4.686,41.975 7,41.223L7,52.777C4.686,52.026 3,49.684 3,47ZM51,47C51,49.684 49.313,52.025 47,52.777L47,41.223C49.313,41.974 51,44.316 51,47ZM23,15C23,12.794 24.794,11 27,11C29.206,11 31,12.794 31,15C31,17.206 29.206,19 27,19C24.794,19 23,17.206 23,15ZM22.101,31C22.565,28.721 24.586,27 27,27C29.414,27 31.435,28.721 31.899,31L22.1,31L22.101,31ZM33.921,31C33.48,27.941 31.06,25.52 28.001,25.08L28.001,20.91C29.229,20.703 30.332,20.125 31.188,19.29C31.789,23.392 33.961,27.163 37.294,29.713L37.636,31L33.921,31ZM46.505,31.132L40.633,34.487L39.138,28.863C39.078,28.641 38.946,28.447 38.761,28.312C35.155,25.68 33.001,21.451 33.001,17C33.001,9.28 39.281,3 47.001,3C54.721,3 61.001,9.28 61.001,17C61.001,24.72 54.721,31 47.001,31C46.827,31 46.656,31.045 46.505,31.132Z" style="fill:rgb(19,190,169);fill-rule:nonzero;"/>
                    <path d="M47,8C44.243,8 42,10.243 42,13C42,13.552 42.447,14 43,14C43.553,14 44,13.552 44,13C44,11.346 45.346,10 47,10C48.654,10 50,11.346 50,13C50,14.654 48.654,16 47,16C46.447,16 46,16.448 46,17L46,21C46,21.552 46.447,22 47,22C47.553,22 48,21.552 48,21L48,17.899C50.279,17.435 52,15.414 52,13C52,10.243 49.757,8 47,8Z" style="fill:rgb(19,190,169);fill-rule:nonzero;"/>
                    <circle cx="47" cy="25" r="1" style="fill:rgb(19,190,169);"/>
                </g>
            </g>
        </g>
    </g>
</svg>
