<?xml version="1.0" encoding="UTF-8" standalone="no"?>
<!DOCTYPE svg PUBLIC "-//W3C//DTD SVG 1.1//EN" "http://www.w3.org/Graphics/SVG/1.1/DTD/svg11.dtd">
<svg width="100%" height="100%" viewBox="0 0 66 66" version="1.1" xmlns="http://www.w3.org/2000/svg" xmlns:xlink="http://www.w3.org/1999/xlink" xml:space="preserve" xmlns:serif="http://www.serif.com/" style="fill-rule:evenodd;clip-rule:evenodd;stroke-linejoin:round;stroke-miterlimit:2;">
    <path d="M60.05,22.93L20.04,22.93L17.23,31.92L57.24,31.92L60.05,22.93Z" style="fill:rgb(135,245,253);fill-rule:nonzero;"/>
    <path d="M17.23,31.92L7.56,62.94L47.57,62.94L57.24,31.92L17.23,31.92Z" style="fill:rgb(214,246,248);fill-rule:nonzero;"/>
    <path d="M60.05,22.93L64,62.93L47.57,62.93L60.05,22.93Z" style="fill:rgb(135,245,253);fill-rule:nonzero;"/>
    <path d="M42.98,36.18L37.51,36.18L35.83,41.55L41.31,41.55L42.98,36.18ZM46.18,36.18L44.5,41.55L49.98,41.55L51.65,36.18L46.18,36.18ZM17.49,44.75L15.82,50.11L21.3,50.11L22.97,44.75L17.49,44.75ZM26.17,44.75L24.49,50.11L29.97,50.11L31.64,44.75L26.17,44.75ZM34.84,44.75L33.16,50.11L38.64,50.11L40.31,44.75L34.84,44.75ZM41.83,50.11L47.31,50.11L48.98,44.75L43.51,44.75L41.83,50.11ZM13.15,58.68L18.63,58.68L20.3,53.31L14.82,53.31L13.15,58.68ZM21.82,58.68L27.3,58.68L28.97,53.31L23.5,53.31L21.82,58.68ZM30.49,58.68L35.97,58.68L37.64,53.31L32.17,53.31L30.49,58.68ZM39.16,58.68L44.64,58.68L46.31,53.31L40.84,53.31L39.16,58.68Z" style="fill:rgb(228,241,242);fill-rule:nonzero;"/>
    <path d="M13.86,36.92C13.86,39.75 16.16,42.05 18.99,42.05C21.82,42.05 24.12,39.75 24.12,36.92L13.86,36.92Z" style="fill:rgb(135,245,253);fill-rule:nonzero;"/>
    <path d="M21.65,9.17C21.49,9.17 21.33,9.12 21.2,9.02C21.015,8.878 20.906,8.658 20.906,8.425C20.906,8.261 20.96,8.101 21.06,7.97C21.41,7.51 21.6,6.97 21.6,6.42C21.6,4.99 20.44,3.83 19.01,3.83C17.58,3.83 16.4,4.98 16.4,6.41C16.4,6.96 16.58,7.5 16.93,7.96C17.027,8.09 17.08,8.248 17.08,8.41C17.08,8.821 16.741,9.16 16.33,9.16C16.094,9.16 15.872,9.049 15.73,8.86C15.19,8.14 14.9,7.29 14.9,6.41C14.9,4.15 16.74,2.32 18.99,2.32C21.24,2.32 23.08,4.16 23.08,6.41C23.08,7.3 22.79,8.15 22.24,8.87C22.1,9.06 21.87,9.17 21.65,9.17Z" style="fill:rgb(246,152,131);fill-rule:nonzero;"/>
    <circle cx="33.16" cy="15.58" r="7.45" style="fill:rgb(228,241,242);"/>
    <path d="M32.32,31.04L32.32,22.97C28.6,22.55 25.71,19.4 25.71,15.57C25.71,13.88 26.28,12.33 27.23,11.08C25.02,9.28 22.24,8.17 19.18,8.12C15.43,8.07 12.01,9.57 9.56,12.02C7.15,14.43 5.66,17.76 5.66,21.45L5.66,31.03C5.66,31.69 5.13,32.22 4.47,32.22L33.52,32.22C32.86,32.24 32.32,31.7 32.32,31.04Z" style="fill:rgb(93,125,121);fill-rule:nonzero;"/>
    <path d="M33.65,32.24L4.47,32.24C3.33,32.24 2.27,32.99 2.05,34.11C2.018,34.266 2.002,34.424 2.002,34.583C2.002,35.865 3.057,36.92 4.339,36.92C4.342,36.92 4.346,36.92 4.35,36.92L33.53,36.92C34.77,36.92 35.89,36.01 35.99,34.77C36.05,34.05 35.78,33.38 35.31,32.92C34.868,32.484 34.271,32.239 33.65,32.24Z" style="fill:rgb(214,246,248);fill-rule:nonzero;"/>
    <path d="M18.99,42.8C21.98,42.8 24.45,40.56 24.82,37.67L33.52,37.67C35.19,37.67 36.6,36.42 36.73,34.83C36.8,33.92 36.48,33.03 35.84,32.39C35.26,31.81 34.48,31.49 33.65,31.49L33.52,31.49C33.28,31.49 33.08,31.29 33.08,31.05L33.08,25.99C33.08,25.58 32.74,25.24 32.33,25.24C31.92,25.24 31.58,25.58 31.58,25.99L31.58,31.05C31.58,31.2 31.6,31.35 31.64,31.49L6.35,31.49C6.38,31.35 6.41,31.2 6.41,31.05L6.41,21.47C6.41,18.11 7.72,14.95 10.09,12.57C11.87,10.79 14.08,9.62 16.49,9.14C16.5,9.14 16.52,9.13 16.53,9.13C17.39,8.96 18.27,8.88 19.17,8.89C20.98,8.92 22.73,9.34 24.37,10.15C24.74,10.33 25.19,10.18 25.37,9.81C25.55,9.44 25.4,8.99 25.03,8.81C24.29,8.45 23.53,8.17 22.76,7.95C22.96,7.46 23.08,6.95 23.08,6.42C23.08,4.16 21.24,2.33 18.99,2.33C16.74,2.33 14.9,4.15 14.9,6.41C14.9,6.93 15.01,7.43 15.2,7.91C12.89,8.55 10.77,9.77 9.03,11.51C6.37,14.17 4.91,17.71 4.91,21.47L4.91,31.05C4.91,31.29 4.71,31.49 4.47,31.49C2.92,31.49 1.6,32.53 1.32,33.96C1.279,34.162 1.259,34.367 1.259,34.573C1.259,36.27 2.653,37.667 4.35,37.67L13.18,37.67C13.548,40.585 16.052,42.796 18.99,42.8ZM16.4,6.41C16.4,4.989 17.569,3.82 18.99,3.82C20.411,3.82 21.58,4.989 21.58,6.41C21.58,6.83 21.48,7.23 21.28,7.6C20.59,7.48 19.9,7.4 19.19,7.39C18.34,7.38 17.51,7.45 16.69,7.59C16.5,7.22 16.4,6.82 16.4,6.41ZM18.99,41.3C16.83,41.3 15.03,39.73 14.68,37.67L23.31,37.67C22.942,39.759 21.111,41.297 18.99,41.3ZM3.21,35.7C2.83,35.32 2.67,34.78 2.78,34.24C2.92,33.52 3.65,32.98 4.46,32.98L33.64,32.98C33.645,32.98 33.651,32.98 33.656,32.98C34.523,32.98 35.236,33.693 35.236,34.56C35.236,34.607 35.234,34.653 35.23,34.7C35.17,35.52 34.41,36.16 33.52,36.16L4.34,36.16C3.92,36.17 3.52,36 3.21,35.7Z" style="fill:rgb(19,190,169);fill-rule:nonzero;"/>
    <path d="M33.16,23.78C37.68,23.78 41.36,20.1 41.36,15.58C41.36,11.06 37.68,7.38 33.16,7.38C28.64,7.38 24.96,11.06 24.96,15.58C24.96,20.1 28.64,23.78 33.16,23.78ZM33.16,8.88C36.85,8.88 39.86,11.88 39.86,15.58C39.86,19.256 36.836,22.28 33.16,22.28C29.484,22.28 26.46,19.256 26.46,15.58C26.46,11.88 29.47,8.88 33.16,8.88ZM49.98,42.3C50.31,42.3 50.6,42.09 50.7,41.77L52.37,36.4C52.441,36.172 52.4,35.923 52.26,35.73C52.119,35.539 51.897,35.424 51.66,35.42L46.18,35.42C45.85,35.419 45.557,35.635 45.46,35.95L43.79,41.32C43.719,41.548 43.76,41.797 43.9,41.99C44.04,42.18 44.27,42.3 44.5,42.3L49.98,42.3ZM46.73,36.93L50.63,36.93L49.42,40.8L45.52,40.8L46.73,36.93ZM22.01,50.34L23.68,44.97C23.751,44.742 23.71,44.493 23.57,44.3C23.429,44.109 23.207,43.994 22.97,43.99L17.49,43.99C17.16,43.989 16.867,44.205 16.77,44.52L15.1,49.89C15.029,50.118 15.07,50.367 15.21,50.56C15.35,50.75 15.58,50.87 15.81,50.87L21.29,50.87C21.62,50.86 21.91,50.65 22.01,50.34ZM16.84,49.36L18.05,45.49L21.95,45.49L20.74,49.36L16.84,49.36ZM30.68,50.34L32.35,44.97C32.375,44.895 32.387,44.817 32.387,44.739C32.387,44.334 32.053,44 31.648,44C31.645,44 31.643,44 31.64,44L26.16,44C25.83,43.999 25.537,44.215 25.44,44.53L23.77,49.9C23.699,50.128 23.74,50.377 23.88,50.57C24.02,50.76 24.25,50.88 24.48,50.88L29.96,50.88C30.3,50.86 30.59,50.65 30.68,50.34ZM25.51,49.36L26.72,45.49L30.62,45.49L29.41,49.36L25.51,49.36ZM39.35,50.34L41.02,44.97C41.091,44.742 41.05,44.493 40.91,44.3C40.769,44.109 40.547,43.994 40.31,43.99L34.83,43.99C34.5,43.989 34.207,44.205 34.11,44.52L32.44,49.89C32.369,50.118 32.41,50.367 32.55,50.56C32.69,50.75 32.92,50.87 33.15,50.87L38.63,50.87C38.97,50.86 39.26,50.65 39.35,50.34ZM34.18,49.36L35.39,45.49L39.29,45.49L38.08,49.36L34.18,49.36ZM42.79,44.52L41.12,49.89C41.049,50.118 41.09,50.367 41.23,50.56C41.37,50.75 41.6,50.87 41.83,50.87L47.31,50.87C47.64,50.87 47.93,50.66 48.03,50.34L49.7,44.97C49.771,44.742 49.73,44.493 49.59,44.3C49.449,44.109 49.227,43.994 48.99,43.99L43.52,43.99C43.18,44 42.89,44.21 42.79,44.52ZM47.96,45.5L46.75,49.37L42.85,49.37L44.06,45.5L47.96,45.5ZM14.82,52.56C14.49,52.559 14.197,52.775 14.1,53.09L12.43,58.46C12.359,58.688 12.4,58.937 12.54,59.13C12.68,59.32 12.91,59.44 13.14,59.44L18.62,59.44C18.95,59.44 19.24,59.23 19.34,58.91L21.01,53.54C21.081,53.312 21.04,53.063 20.9,52.87C20.759,52.679 20.537,52.564 20.3,52.56L14.82,52.56ZM18.07,57.93L14.17,57.93L15.38,54.06L19.28,54.06L18.07,57.93ZM21.82,59.43L27.3,59.43C27.63,59.43 27.92,59.22 28.02,58.9L29.69,53.53C29.761,53.302 29.72,53.053 29.58,52.86C29.439,52.669 29.217,52.554 28.98,52.55L23.5,52.55C23.17,52.549 22.877,52.765 22.78,53.08L21.11,58.45C21.039,58.678 21.08,58.927 21.22,59.12C21.36,59.31 21.58,59.43 21.82,59.43ZM24.05,54.06L27.95,54.06L26.74,57.93L22.84,57.93L24.05,54.06ZM30.49,59.43L35.97,59.43C36.3,59.43 36.59,59.22 36.69,58.9L38.36,53.53C38.431,53.302 38.39,53.053 38.25,52.86C38.109,52.669 37.887,52.554 37.65,52.55L32.17,52.55C31.84,52.549 31.547,52.765 31.45,53.08L29.78,58.45C29.709,58.678 29.75,58.927 29.89,59.12C30.03,59.31 30.25,59.43 30.49,59.43ZM32.72,54.06L36.62,54.06L35.41,57.93L31.51,57.93L32.72,54.06ZM39.16,59.43L44.64,59.43C44.97,59.43 45.26,59.22 45.36,58.9L47.03,53.53C47.101,53.302 47.06,53.053 46.92,52.86C46.779,52.669 46.557,52.554 46.32,52.55L40.84,52.55C40.51,52.549 40.217,52.765 40.12,53.08L38.45,58.45C38.379,58.678 38.42,58.927 38.56,59.12C38.7,59.31 38.92,59.43 39.16,59.43ZM41.39,54.06L45.29,54.06L44.08,57.93L40.18,57.93L41.39,54.06Z" style="fill:rgb(19,190,169);fill-rule:nonzero;"/>
    <path d="M31.2,18.44C31.491,18.731 31.969,18.731 32.26,18.44L36.91,13.79C37.2,13.5 37.2,13.02 36.91,12.73C36.62,12.44 36.14,12.44 35.85,12.73L31.73,16.85L30.48,15.6C30.188,15.312 29.712,15.312 29.42,15.6C29.13,15.89 29.13,16.37 29.42,16.66L31.2,18.44ZM35.83,40.8C35.42,40.8 35.08,41.14 35.08,41.55C35.08,41.96 35.42,42.3 35.83,42.3L41.31,42.3C41.64,42.3 41.93,42.09 42.03,41.77L43.7,36.4C43.771,36.172 43.73,35.923 43.59,35.73C43.449,35.539 43.227,35.424 42.99,35.42L38.73,35.42C38.32,35.42 37.98,35.76 37.98,36.17C37.98,36.58 38.32,36.92 38.73,36.92L41.97,36.92L40.76,40.79L35.83,40.79L35.83,40.8Z" style="fill:rgb(19,190,169);fill-rule:nonzero;"/>
    <path d="M60.76,23.15C60.831,22.922 60.79,22.673 60.65,22.48C60.509,22.289 60.287,22.174 60.05,22.17L40.57,22.17C40.16,22.17 39.82,22.51 39.82,22.92C39.82,23.33 40.16,23.67 40.57,23.67L59.02,23.67L56.68,31.17L38.28,31.17C37.87,31.17 37.53,31.51 37.53,31.92C37.53,32.33 37.87,32.67 38.28,32.67L56.22,32.67L47.02,62.18L8.58,62.18L14.46,43.31C14.58,42.91 14.36,42.49 13.97,42.37C13.58,42.25 13.15,42.47 13.03,42.86L6.85,62.71C6.779,62.938 6.82,63.187 6.96,63.38C7.1,63.57 7.33,63.69 7.56,63.69L47.57,63.69C47.9,63.69 48.19,63.48 48.29,63.16L57.96,32.15L60.76,23.15ZM11.86,14.34C9.966,16.227 8.903,18.796 8.91,21.47C8.91,21.88 9.25,22.22 9.66,22.22C10.07,22.22 10.41,21.88 10.41,21.47C10.41,19.18 11.3,17.02 12.92,15.4C14.4,13.92 16.28,13.07 18.37,12.92C18.78,12.89 19.09,12.53 19.07,12.12C19.04,11.71 18.681,11.396 18.27,11.42C15.84,11.59 13.57,12.63 11.86,14.34ZM61.55,30.51C61.508,30.102 61.139,29.8 60.73,29.84C60.322,29.882 60.02,30.251 60.06,30.66L63.17,62.19L50.71,62.19C50.3,62.19 49.96,62.53 49.96,62.94C49.96,63.35 50.3,63.69 50.71,63.69L64,63.69C64.21,63.69 64.41,63.6 64.56,63.44C64.7,63.28 64.77,63.07 64.75,62.86L61.55,30.51Z" style="fill:rgb(19,190,169);fill-rule:nonzero;"/>
</svg>
