<?xml version="1.0" encoding="UTF-8" standalone="no"?>
<!DOCTYPE svg PUBLIC "-//W3C//DTD SVG 1.1//EN" "http://www.w3.org/Graphics/SVG/1.1/DTD/svg11.dtd">
<svg width="100%" height="100%" viewBox="0 0 64 64" version="1.1" xmlns="http://www.w3.org/2000/svg" xmlns:xlink="http://www.w3.org/1999/xlink" xml:space="preserve" xmlns:serif="http://www.serif.com/" style="fill-rule:evenodd;clip-rule:evenodd;stroke-linejoin:round;stroke-miterlimit:2;">
    <rect x="14" y="24" width="48" height="38" style="fill:rgb(228,241,242);"/>
    <path d="M57,32C57,33.104 56.104,34 55,34L21,34C19.896,34 19,33.104 19,32C19,30.896 19.896,30 21,30L55,30C56.104,30 57,30.896 57,32Z" style="fill:rgb(255,54,50);"/>
    <path d="M36,22L36,40C36,41.104 35.104,42 34,42L8,42C6.896,42 6,41.104 6,40L6,22C6,20.896 6.896,20 8,20L34,20C35.104,20 36,20.896 36,22Z" style="fill:rgb(214,246,248);"/>
    <path d="M2,31C2,33.209 3.791,35 6,35L6,27C3.791,27 2,28.791 2,31ZM40,31C40,33.209 38.209,35 36,35L36,27C38.209,27 40,28.791 40,31ZM21,38C18.791,38 17,36.209 17,34L25,34C25,36.209 23.209,38 21,38ZM21,14C17.686,14 15,16.686 15,20L27,20C27,16.686 24.314,14 21,14Z" style="fill:rgb(135,221,253);fill-rule:nonzero;"/>
    <circle cx="21" cy="5" r="3" style="fill:rgb(135,221,253);"/>
    <path d="M30,27C30,28.104 29.104,29 28,29L14,29C12.896,29 12,28.104 12,27C12,25.896 12.896,25 14,25L28,25C29.104,25 30,25.896 30,27Z" style="fill:rgb(135,221,253);"/>
    <path d="M62,40.36C62.552,40.36 63,39.912 63,39.36L63,24C63,23.448 62.552,23 62,23L37,23L37,22C37,20.346 35.654,19 34,19L27.92,19C27.479,15.941 25.059,13.52 22,13.08L22,8.858C23.72,8.411 25,6.858 25,5C25,2.794 23.206,1 21,1C18.794,1 17,2.794 17,5C17,6.858 18.28,8.411 20,8.858L20,13.08C16.941,13.521 14.52,15.941 14.08,19L8,19C6.346,19 5,20.346 5,22L5,26.101C2.721,26.566 1,28.585 1,31C1,33.415 2.721,35.434 5,35.899L5,40C5,41.654 6.346,43 8,43L13,43L13,62C13,62.552 13.448,63 14,63L62,63C62.552,63 63,62.552 63,62L63,43.36C63,42.808 62.552,42.36 62,42.36C61.448,42.36 61,42.808 61,43.36L61,61L15,61L15,43L34,43C35.654,43 37,41.654 37,40L37,35.899C37.73,35.75 38.392,35.43 38.969,35L55,35C55.811,35 56.565,34.683 57.108,34.126C57.683,33.565 58,32.811 58,32C58,30.346 56.654,29 55,29L40.576,29C39.932,27.532 38.607,26.429 37,26.101L37,25L61,25L61,39.36C61,39.912 61.448,40.36 62,40.36ZM19,5C19,3.897 19.897,3 21,3C22.103,3 23,3.897 23,5C23,6.103 22.103,7 21,7C19.897,7 19,6.103 19,5ZM21,15C23.415,15 25.435,16.721 25.899,19L16.1,19C16.564,16.721 18.585,15 20.999,15L21,15ZM3,31C3,29.696 3.836,28.584 5,28.171L5,33.828C3.836,33.415 3,32.303 3,30.999L3,31ZM35,40C35,40.551 34.551,41 34,41L8,41C7.449,41 7,40.551 7,40L7,22C7,21.449 7.449,21 8,21L34,21C34.551,21 35,21.449 35,22L35,40ZM55,31C55.551,31 56,31.449 56,32C56,32.267 55.898,32.513 55.694,32.712C55.513,32.898 55.266,33 55,33L40.576,33C40.845,32.386 41,31.712 41,31L55,31ZM39,31C39,32.304 38.164,33.416 37,33.829L37,28.172C38.164,28.585 39,29.697 39,31.001L39,31Z" style="fill:rgb(19,190,169);fill-rule:nonzero;"/>
    <path d="M25,33L17,33C16.448,33 16,33.448 16,34C16,36.757 18.243,39 21,39C23.757,39 26,36.757 26,34C26,33.448 25.552,33 25,33ZM21,37C19.696,37 18.584,36.164 18.171,35L23.828,35C23.415,36.164 22.303,37 20.999,37L21,37ZM28,24L14,24C12.346,24 11,25.346 11,27C11,28.654 12.346,30 14,30L28,30C29.654,30 31,28.654 31,27C31,25.346 29.654,24 28,24ZM28,28L14,28C13.449,28 13,27.551 13,27C13,26.449 13.449,26 14,26L28,26C28.551,26 29,26.449 29,27C29,27.551 28.551,28 28,28ZM28.232,56.64C28.43,56.877 28.714,57 29.001,57C29.227,57 29.454,56.924 29.641,56.768L35.641,51.768C35.869,51.578 36.001,51.297 36.001,51C36.001,50.703 35.869,50.422 35.641,50.232L29.641,45.232C29.216,44.879 28.586,44.936 28.233,45.36C27.879,45.784 27.937,46.415 28.361,46.768L33.439,51L28.361,55.232C27.937,55.586 27.88,56.216 28.233,56.64L28.232,56.64ZM36,57L44,57C44.552,57 45,56.552 45,56C45,55.448 44.552,55 44,55L36,55C35.448,55 35,55.448 35,56C35,56.552 35.448,57 36,57Z" style="fill:rgb(93,125,121);fill-rule:nonzero;"/>
</svg>
