<svg width="656" height="243" viewBox="0 0 656 243" fill="none" xmlns="http://www.w3.org/2000/svg">
<mask id="mask0_3730_9717" style="mask-type:alpha" maskUnits="userSpaceOnUse" x="58" y="44" width="557" height="155">
<path d="M62.7079 47.9874H58V44.7826H71.0802V47.9874H66.3723V63.3284H62.7079V47.9874Z" fill="#313131"/>
<path d="M75.1104 44H78.7251V51.5028C78.9819 50.7244 79.4208 50.1281 80.0419 49.7141C80.6712 49.2917 81.4331 49.0805 82.3275 49.0805C83.6193 49.0805 84.6007 49.5236 85.2715 50.4097C85.9422 51.2958 86.2776 52.5918 86.2776 54.2977V63.3284H82.6629V54.8567C82.6629 53.8878 82.5221 53.1798 82.2405 52.7326C81.959 52.2854 81.5283 52.0618 80.9486 52.0618C80.2365 52.0618 79.6858 52.3558 79.2965 52.9437C78.9156 53.5317 78.7251 54.3391 78.7251 55.366V63.3284H75.1104V44Z" fill="#313131"/>
<path d="M97.4131 63.6887C95.0198 63.6887 93.1979 63.0717 91.9475 61.8378C90.7053 60.5956 90.0842 58.8027 90.0842 56.4591C90.0842 54.9768 90.3409 53.6849 90.8543 52.5835C91.3678 51.4738 92.1338 50.6126 93.1524 49.9998C94.1793 49.3869 95.4628 49.0805 97.0032 49.0805C98.2702 49.0805 99.3675 49.3745 100.295 49.9625C101.222 50.5505 101.939 51.3703 102.444 52.422C102.957 53.4655 103.214 54.6828 103.214 56.074V57.5523H93.7859C93.7859 59.7219 95.0529 60.8068 97.587 60.8068C99.2515 60.8068 100.933 60.3058 102.63 59.3037V62.6452C100.941 63.3408 99.2018 63.6887 97.4131 63.6887ZM99.5496 54.8194C99.5496 53.8588 99.3136 53.1342 98.8416 52.6456C98.3696 52.1487 97.6946 51.9003 96.8168 51.9003C95.9225 51.9003 95.2227 52.1529 94.7175 52.658C94.2124 53.1632 93.9143 53.8837 93.8232 54.8194H99.5496Z" fill="#313131"/>
<path d="M95.1181 154.347C88.3896 154.347 83.5373 152.584 80.5612 149.058C77.6175 145.499 76.1456 139.709 76.1456 131.686V89.3743H61.7343V78.4567H90.3628V131.686C90.3628 135.892 91.026 138.9 92.3523 140.712C93.7109 142.523 95.9591 143.429 99.097 143.429H110.451V154.347H95.1181Z" fill="#313131"/>
<path d="M149.631 155.365C144.487 155.365 140.023 154.217 136.238 151.92C132.486 149.591 129.591 146.292 127.553 142.022C125.515 137.752 124.496 132.705 124.496 126.883C124.496 121.06 125.515 116.013 127.553 111.743C129.623 107.441 132.551 104.125 136.335 101.796C140.153 99.4671 144.665 98.3026 149.873 98.3026C155.017 98.3026 159.448 99.4509 163.169 101.748C166.889 104.012 169.751 107.263 171.757 111.501C173.795 115.738 174.814 120.769 174.814 126.591C174.814 132.511 173.779 137.622 171.709 141.925C169.671 146.227 166.775 149.543 163.023 151.872C159.271 154.201 154.806 155.365 149.631 155.365ZM149.679 143.817C153.011 143.817 155.664 142.297 157.637 139.256C159.61 136.183 160.597 132.042 160.597 126.834C160.597 121.594 159.61 117.453 157.637 114.412C155.664 111.371 153.011 109.851 149.679 109.851C146.315 109.851 143.646 111.388 141.673 114.461C139.7 117.501 138.713 121.626 138.713 126.834C138.713 132.042 139.7 136.183 141.673 139.256C143.646 142.297 146.315 143.817 149.679 143.817Z" fill="#313131"/>
<path d="M212.15 155.365C206.036 155.365 199.259 154.233 191.818 151.969V139.547C198.191 143.202 204.58 145.03 210.985 145.03C217.649 145.03 220.981 143.057 220.981 139.11C220.981 137.363 220.188 135.956 218.603 134.889C217.018 133.821 214.317 132.883 210.5 132.074L206.569 131.201C196.153 128.872 190.945 123.518 190.945 115.14C190.945 109.77 192.87 105.63 196.719 102.718C200.601 99.7744 206.214 98.3026 213.557 98.3026C216.403 98.3026 219.218 98.5452 222 99.0304C224.814 99.5156 227.709 100.276 230.685 101.311V113.733C227.839 111.954 225.105 110.66 222.485 109.851C219.897 109.042 217.228 108.638 214.479 108.638C211.244 108.638 208.753 109.107 207.006 110.045C205.259 110.983 204.386 112.245 204.386 113.83C204.386 115.286 205.195 116.547 206.812 117.615C208.462 118.65 211.114 119.588 214.77 120.429L219.379 121.545C224.555 122.774 228.34 124.748 230.734 127.465C233.16 130.182 234.373 133.773 234.373 138.237C234.373 149.656 226.965 155.365 212.15 155.365Z" fill="#313131"/>
<path d="M275.008 155.365C268.894 155.365 262.117 154.233 254.677 151.969V139.547C261.05 143.202 267.438 145.03 273.843 145.03C280.507 145.03 283.839 143.057 283.839 139.11C283.839 137.363 283.047 135.956 281.462 134.889C279.876 133.821 277.175 132.883 273.358 132.074L269.428 131.201C259.012 128.872 253.803 123.518 253.803 115.14C253.803 109.77 255.728 105.63 259.578 102.718C263.46 99.7744 269.072 98.3026 276.415 98.3026C279.262 98.3026 282.076 98.5452 284.858 99.0304C287.672 99.5156 290.568 100.276 293.544 101.311V113.733C290.697 111.954 287.964 110.66 285.343 109.851C282.755 109.042 280.087 108.638 277.337 108.638C274.102 108.638 271.611 109.107 269.865 110.045C268.118 110.983 267.244 112.245 267.244 113.83C267.244 115.286 268.053 116.547 269.67 117.615C271.32 118.65 273.973 119.588 277.628 120.429L282.238 121.545C287.414 122.774 291.198 124.748 293.592 127.465C296.018 130.182 297.231 133.773 297.231 138.237C297.231 149.656 289.824 155.365 275.008 155.365Z" fill="#313131"/>
<path d="M346.552 154.347C339.824 154.347 334.971 152.584 331.995 149.058C329.052 145.499 327.58 139.709 327.58 131.686V89.3743H313.168V78.4567H341.797V131.686C341.797 135.892 342.46 138.9 343.786 140.712C345.145 142.523 347.393 143.429 350.531 143.429H361.885V154.347H346.552Z" fill="#313131"/>
<path d="M403.782 155.365C394.433 155.365 387.317 152.956 382.432 148.136C377.58 143.283 375.153 136.28 375.153 127.125C375.153 121.335 376.156 116.288 378.162 111.986C380.167 107.651 383.16 104.287 387.139 101.893C391.15 99.4995 396.164 98.3026 402.181 98.3026C407.13 98.3026 411.416 99.4509 415.039 101.748C418.662 104.044 421.46 107.247 423.434 111.355C425.439 115.431 426.442 120.186 426.442 125.621V131.395H389.613C389.613 139.871 394.563 144.108 404.461 144.108C410.963 144.108 417.53 142.151 424.162 138.237V151.29C417.562 154.007 410.769 155.365 403.782 155.365ZM412.128 120.72C412.128 116.968 411.206 114.137 409.362 112.229C407.518 110.288 404.882 109.317 401.453 109.317C397.959 109.317 395.226 110.304 393.253 112.277C391.279 114.25 390.115 117.065 389.759 120.72H412.128Z" fill="#313131"/>
<path d="M463.584 155.365C457.47 155.365 450.693 154.233 443.252 151.969V139.547C449.625 143.202 456.014 145.03 462.419 145.03C469.083 145.03 472.415 143.057 472.415 139.11C472.415 137.363 471.622 135.956 470.037 134.889C468.452 133.821 465.751 132.883 461.934 132.074L458.003 131.201C447.587 128.872 442.379 123.518 442.379 115.14C442.379 109.77 444.304 105.63 448.153 102.718C452.035 99.7744 457.648 98.3026 464.991 98.3026C467.837 98.3026 470.652 98.5452 473.434 99.0304C476.248 99.5156 479.143 100.276 482.119 101.311V113.733C479.273 111.954 476.539 110.66 473.919 109.851C471.331 109.042 468.662 108.638 465.913 108.638C462.678 108.638 460.187 109.107 458.44 110.045C456.693 110.983 455.82 112.245 455.82 113.83C455.82 115.286 456.629 116.547 458.246 117.615C459.896 118.65 462.548 119.588 466.204 120.429L470.813 121.545C475.989 122.774 479.774 124.748 482.168 127.465C484.594 130.182 485.807 133.773 485.807 138.237C485.807 149.656 478.399 155.365 463.584 155.365Z" fill="#313131"/>
<path d="M526.442 155.365C520.328 155.365 513.551 154.233 506.111 151.969V139.547C512.484 143.202 518.872 145.03 525.277 145.03C531.941 145.03 535.273 143.057 535.273 139.11C535.273 137.363 534.481 135.956 532.896 134.889C531.311 133.821 528.609 132.883 524.792 132.074L520.862 131.201C510.446 128.872 505.238 123.518 505.238 115.14C505.238 109.77 507.162 105.63 511.012 102.718C514.894 99.7744 520.506 98.3026 527.849 98.3026C530.696 98.3026 533.51 98.5452 536.292 99.0304C539.107 99.5156 542.002 100.276 544.978 101.311V113.733C542.131 111.954 539.398 110.66 536.777 109.851C534.19 109.042 531.521 108.638 528.771 108.638C525.536 108.638 523.045 109.107 521.299 110.045C519.552 110.983 518.678 112.245 518.678 113.83C518.678 115.286 519.487 116.547 521.105 117.615C522.754 118.65 525.407 119.588 529.062 120.429L533.672 121.545C538.848 122.774 542.633 124.748 545.026 127.465C547.452 130.182 548.666 133.773 548.666 138.237C548.666 149.656 541.258 155.365 526.442 155.365Z" fill="#313131"/>
<path d="M589.446 155.996C588.185 155.996 587.068 155.77 586.098 155.317C585.128 154.896 584.238 154.282 583.429 153.473C581.747 151.791 580.906 149.672 580.906 147.117C580.906 144.464 581.747 142.297 583.429 140.615C585.079 138.965 587.101 138.14 589.495 138.14C591.921 138.14 593.959 138.965 595.609 140.615C597.258 142.264 598.083 144.432 598.083 147.117C598.083 149.704 597.258 151.823 595.609 153.473C593.926 155.155 591.872 155.996 589.446 155.996Z" fill="#313131"/>
<path d="M532.898 194.069C530.513 194.069 528.67 193.236 527.37 191.572C526.749 190.777 526.264 189.791 525.917 188.615C525.577 187.439 525.407 186.044 525.407 184.429C525.407 181.307 526.07 178.93 527.395 177.299C528.72 175.651 530.604 174.827 533.047 174.827C533.834 174.827 534.587 174.931 535.308 175.138C536.036 175.353 536.711 175.659 537.332 176.057V180.119C536.819 179.456 536.231 178.955 535.568 178.616C534.914 178.284 534.186 178.119 533.382 178.119C531.983 178.119 530.939 178.641 530.252 179.684C529.565 180.744 529.221 182.326 529.221 184.429C529.221 186.491 529.552 188.073 530.215 189.174C530.529 189.688 530.923 190.085 531.395 190.367C531.875 190.64 532.451 190.777 533.121 190.777C533.287 190.777 533.457 190.768 533.631 190.752C533.805 190.735 533.962 190.706 534.103 190.665C534.285 190.624 534.422 190.578 534.513 190.528C534.604 190.479 534.695 190.421 534.786 190.354V186.814H532.277V183.734H537.991V192.23C537.287 192.835 536.513 193.29 535.668 193.596C535.237 193.754 534.798 193.87 534.351 193.944C533.904 194.027 533.419 194.069 532.898 194.069Z" fill="#313131"/>
<path d="M543.039 179.796H546.319L546.679 181.957C547.035 181.17 547.578 180.558 548.306 180.119C549.043 179.68 549.905 179.46 550.89 179.46C551.909 179.46 552.853 179.696 553.722 180.168V183.634C552.919 182.905 551.867 182.541 550.567 182.541C549.515 182.541 548.662 182.781 548.008 183.261C547.354 183.742 546.948 184.433 546.791 185.336C546.749 185.551 546.721 185.812 546.704 186.119C546.687 186.425 546.679 186.818 546.679 187.299V193.708H543.039V179.796Z" fill="#313131"/>
<path d="M563.789 194.069C562.473 194.069 561.33 193.775 560.361 193.187C559.4 192.59 558.659 191.746 558.138 190.653C557.616 189.559 557.355 188.268 557.355 186.777C557.355 185.286 557.616 183.994 558.138 182.901C558.668 181.8 559.417 180.951 560.386 180.355C561.363 179.759 562.518 179.46 563.852 179.46C565.168 179.46 566.303 179.754 567.255 180.342C568.207 180.922 568.94 181.754 569.454 182.839C569.976 183.924 570.236 185.212 570.236 186.702C570.236 188.218 569.971 189.526 569.441 190.628C568.92 191.729 568.178 192.578 567.218 193.174C566.257 193.77 565.114 194.069 563.789 194.069ZM563.802 191.112C564.655 191.112 565.334 190.723 565.839 189.944C566.344 189.158 566.597 188.098 566.597 186.764C566.597 185.423 566.344 184.363 565.839 183.584C565.334 182.806 564.655 182.417 563.802 182.417C562.941 182.417 562.257 182.81 561.752 183.597C561.247 184.375 560.995 185.431 560.995 186.764C560.995 188.098 561.247 189.158 561.752 189.944C562.257 190.723 562.941 191.112 563.802 191.112Z" fill="#313131"/>
<path d="M578.192 194.069C576.9 194.069 575.915 193.625 575.235 192.739C574.556 191.845 574.217 190.549 574.217 188.851V179.796H577.857V188.292C577.857 190.156 578.428 191.087 579.571 191.087C580.266 191.087 580.805 190.797 581.186 190.218C581.575 189.638 581.769 188.826 581.769 187.783V179.796H585.409V193.708H582.13L581.769 191.646C581.215 193.261 580.022 194.069 578.192 194.069Z" fill="#313131"/>
<path d="M590.184 179.796H593.451L593.812 181.883C594.582 180.268 595.816 179.46 597.513 179.46C599.078 179.46 600.304 180.11 601.19 181.411C602.076 182.703 602.519 184.491 602.519 186.777C602.519 189.062 602.076 190.851 601.19 192.143C600.304 193.427 599.087 194.069 597.538 194.069C595.907 194.069 594.665 193.294 593.812 191.746V199H590.184V179.796ZM596.358 191.038C597.12 191.038 597.729 190.644 598.184 189.858C598.648 189.062 598.88 187.998 598.88 186.665C598.88 185.365 598.656 184.338 598.209 183.584C597.77 182.823 597.166 182.442 596.395 182.442C595.609 182.442 594.979 182.835 594.507 183.622C594.044 184.4 593.812 185.439 593.812 186.74C593.812 188.04 594.044 189.083 594.507 189.87C594.971 190.648 595.588 191.038 596.358 191.038Z" fill="#313131"/>
<path d="M612.015 194.23C611.692 194.23 611.406 194.172 611.158 194.056C610.91 193.948 610.682 193.791 610.475 193.584C610.044 193.153 609.829 192.611 609.829 191.957C609.829 191.278 610.044 190.723 610.475 190.292C610.897 189.87 611.415 189.659 612.028 189.659C612.649 189.659 613.17 189.87 613.593 190.292C614.015 190.715 614.226 191.269 614.226 191.957C614.226 192.619 614.015 193.162 613.593 193.584C613.162 194.015 612.636 194.23 612.015 194.23Z" fill="#313131"/>
</mask>
<g mask="url(#mask0_3730_9717)">
<rect width="556.226" height="155" transform="translate(58 44)" fill="url(#paint0_linear_3730_9717)"/>
</g>
<defs>
<linearGradient id="paint0_linear_3730_9717" x1="25.4189" y1="12.372" x2="249.363" y2="253.911" gradientUnits="userSpaceOnUse">
<stop stop-color="#22A6B5"/>
<stop offset="0.26559" stop-color="#9138E0"/>
<stop offset="0.630233" stop-color="#D9233B"/>
<stop offset="1" stop-color="#F59C49"/>
</linearGradient>
</defs>
</svg>
