<svg width="461" height="300" viewBox="0 0 461 300" fill="none" xmlns="http://www.w3.org/2000/svg">
<path d="M60.002 0.00256348H461V300.003H0.00195312L60.002 0.00256348Z" fill="white"/>
<path d="M149.788 217.742H113.752L108.032 249.488H76L116.04 49.288H147.5L187.54 249.488H155.508L149.788 217.742ZM144.354 186.282L131.77 114.496L119.186 186.282H144.354ZM256.348 49.288H288.38L248.34 249.488H216.88L176.84 49.288H208.872L232.61 184.566L256.348 49.288ZM381.995 240.05C373.606 247.867 362.547 251.776 348.819 251.776C335.473 251.776 324.414 247.867 315.643 240.05C306.11 230.517 301.343 218.028 301.343 202.584V96.192C301.343 80.748 306.11 68.2593 315.643 58.726C324.414 50.9087 335.473 47 348.819 47C362.547 47 373.606 50.9087 381.995 58.726C391.529 67.878 396.295 80.3667 396.295 96.192V113.924H364.835V96.192C364.835 89.1373 363.501 84.3707 360.831 81.892C358.353 79.604 354.349 78.46 348.819 78.46C343.481 78.46 339.572 79.604 337.093 81.892C334.233 84.5613 332.803 89.328 332.803 96.192V202.584C332.803 209.448 334.233 214.215 337.093 216.884C339.572 219.172 343.481 220.316 348.819 220.316C354.349 220.316 358.353 219.172 360.831 216.884C363.501 214.405 364.835 209.639 364.835 202.584V176.844H396.295V202.584C396.295 218.409 391.529 230.898 381.995 240.05Z" fill="#101010"/>
</svg>
