<?xml version="1.0" encoding="UTF-8" standalone="no"?>
<!DOCTYPE svg PUBLIC "-//W3C//DTD SVG 1.1//EN" "http://www.w3.org/Graphics/SVG/1.1/DTD/svg11.dtd">
<svg width="100%" height="100%" viewBox="0 0 163 37" version="1.1" xmlns="http://www.w3.org/2000/svg" xmlns:xlink="http://www.w3.org/1999/xlink" xml:space="preserve" xmlns:serif="http://www.serif.com/" style="fill-rule:evenodd;clip-rule:evenodd;stroke-linejoin:round;stroke-miterlimit:2;">
    <g transform="matrix(1,0,0,1,-20.3579,-9.50001)">
        <g>
            <g transform="matrix(0.671647,0,0,0.671647,20.3579,9.1939)">
                <path d="M59,42.585L59,14.138L12,3.737L12,52.315L59,42.585ZM60.406,45.357C61.334,45.165 62,44.347 62,43.399L62,13.336C62,12.398 61.348,11.586 60.432,11.383L11.432,0.538C10.184,0.262 9,1.212 9,2.491L9,53.544C9,54.811 10.164,55.759 11.406,55.502L60.406,45.357Z" style="fill:rgb(213,63,140);"/>
                <path d="M0,12.601C0,11.653 0.666,10.835 1.595,10.643L50.594,0.498C51.836,0.241 53,1.189 53,2.456L53,53.509C53,54.788 51.816,55.738 50.568,55.462L1.568,44.617C0.652,44.415 0,43.603 0,42.664L0,12.601Z" style="fill:rgb(242,225,66);fill-rule:nonzero;"/>
                <rect x="9" y="3.029" width="3" height="49.996" style="fill:rgb(213,63,140);fill-rule:nonzero;"/>
            </g>
            <g transform="matrix(1,0,0,1,-6,1)">
                <path d="M77.295,37.903L80.28,37.903L80.28,25.609C80.28,22.978 82.354,21.056 85.188,21.056C85.984,21.056 86.806,21.208 87.009,21.258L87.009,18.223C86.667,18.197 85.883,18.172 85.44,18.172C83.113,18.172 81.09,19.488 80.381,21.41L80.179,21.41L80.179,18.476L77.295,18.476L77.295,37.903Z" style="fill:white;fill-rule:nonzero;"/>
                <path d="M96.388,38.307C100.334,38.307 103.218,36.334 104.129,33.4L101.245,32.591C100.486,34.614 98.728,35.626 96.388,35.626C92.885,35.626 90.469,33.362 90.33,29.201L104.432,29.201L104.432,27.936C104.432,20.702 100.132,18.223 96.085,18.223C90.823,18.223 87.333,22.371 87.333,28.341C87.333,34.311 90.773,38.307 96.388,38.307ZM90.33,26.621C90.533,23.598 92.67,20.904 96.085,20.904C99.323,20.904 101.397,23.332 101.397,26.621L90.33,26.621Z" style="fill:white;fill-rule:nonzero;"/>
                <path d="M123.146,18.476L119.908,18.476L114.545,33.957L114.343,33.957L108.98,18.476L105.743,18.476L112.926,37.903L115.962,37.903L123.146,18.476Z" style="fill:white;fill-rule:nonzero;"/>
                <path d="M132.822,38.307C136.768,38.307 139.652,36.334 140.563,33.4L137.679,32.591C136.92,34.614 135.162,35.626 132.822,35.626C129.319,35.626 126.903,33.362 126.764,29.201L140.866,29.201L140.866,27.936C140.866,20.702 136.566,18.223 132.519,18.223C127.257,18.223 123.767,22.371 123.767,28.341C123.767,34.311 127.207,38.307 132.822,38.307ZM126.764,26.621C126.967,23.598 129.104,20.904 132.519,20.904C135.757,20.904 137.831,23.332 137.831,26.621L126.764,26.621Z" style="fill:white;fill-rule:nonzero;"/>
                <path d="M149.411,38.358C152.801,38.358 154.571,36.537 155.178,35.272L155.33,35.272L155.33,37.903L158.315,37.903L158.315,25.103C158.315,18.931 153.61,18.223 151.131,18.223C148.197,18.223 144.858,19.235 143.34,22.776L146.173,23.788C146.831,22.371 148.387,20.853 151.232,20.853C153.977,20.853 155.33,22.308 155.33,24.799L155.33,24.901C155.33,26.343 153.863,26.216 150.322,26.671C146.717,27.139 142.784,27.936 142.784,32.388C142.784,36.183 145.718,38.358 149.411,38.358ZM149.866,35.677C147.489,35.677 145.769,34.614 145.769,32.54C145.769,30.263 147.843,29.555 150.17,29.252C151.435,29.1 154.824,28.746 155.33,28.139L155.33,30.871C155.33,33.299 153.408,35.677 149.866,35.677Z" style="fill:white;fill-rule:nonzero;"/>
                <rect x="162.051" y="12" width="2.984" height="25.903" style="fill:white;fill-rule:nonzero;"/>
                <path d="M175.419,24L175.419,32.583C175.419,33.396 175.095,33.854 174.368,33.854L174.146,33.854L174.146,35L174.388,35C175.883,35 176.611,34.063 176.611,32.583L176.611,24L175.419,24ZM176.004,22.667C176.469,22.667 176.853,22.292 176.853,21.833C176.853,21.375 176.469,21 176.004,21C175.54,21 175.156,21.375 175.156,21.833C175.156,22.292 175.54,22.667 176.004,22.667Z" style="fill:white;fill-rule:nonzero;"/>
                <path d="M184.004,25.792C183.631,24.656 182.792,23.896 181.257,23.896C179.62,23.896 178.408,24.854 178.408,26.208C178.408,27.313 179.045,28.052 180.469,28.396L181.762,28.708C182.545,28.896 182.913,29.281 182.913,29.833C182.913,30.521 182.206,31.083 181.095,31.083C180.12,31.083 179.509,30.651 179.297,29.792L178.166,30.083C178.444,31.443 179.529,32.167 181.115,32.167C182.918,32.167 184.146,31.151 184.146,29.771C184.146,28.656 183.469,27.953 182.085,27.604L180.934,27.313C180.014,27.078 179.6,26.76 179.6,26.146C179.6,25.458 180.307,24.958 181.257,24.958C182.297,24.958 182.726,25.552 182.934,26.104L184.004,25.792Z" style="fill:white;fill-rule:nonzero;"/>
                <path d="M187.146,19L171.146,19C170.594,19 170.146,19.448 170.146,20L170.146,36C170.146,36.552 170.594,37 171.146,37L187.146,37C187.698,37 188.146,36.552 188.146,36L188.146,20C188.146,19.448 187.698,19 187.146,19ZM171.146,18C170.041,18 169.146,18.895 169.146,20L169.146,36C169.146,37.105 170.041,38 171.146,38L187.146,38C188.25,38 189.146,37.105 189.146,36L189.146,20C189.146,18.895 188.25,18 187.146,18L171.146,18Z" style="fill:white;"/>
            </g>
        </g>
    </g>
</svg>
