<svg width="154" height="48" viewBox="0 0 154 48" fill="none" xmlns="http://www.w3.org/2000/svg">
<rect x="-3.05176e-05" width="48" height="48" rx="24" fill="white"/>
<path fill-rule="evenodd" clip-rule="evenodd" d="M3.44296 3.44299C-3.05176e-05 6.88598 -3.05176e-05 12.4274 -3.05176e-05 23.5102V24.4898C-3.05176e-05 35.5726 -3.05176e-05 41.114 3.44296 44.557C6.88595 48 12.4274 48 23.5102 48H24.4898C35.5726 48 41.114 48 44.557 44.557C48 41.114 48 35.5726 48 24.4898V24.4898V23.5102V23.5102C48 12.4274 48 6.88598 44.557 3.44299C41.114 0 35.5726 0 24.4898 0H23.5102C12.4274 0 6.88595 0 3.44296 3.44299ZM38.3864 12.0135C35.2747 11.879 32.2015 12.7511 29.6141 14.5031C27.0267 16.2551 25.0598 18.7955 23.9997 21.7549C22.9396 18.7955 20.9728 16.2551 18.3853 14.5031C15.7979 12.7511 12.7248 11.879 9.61301 12.0135C9.50853 14.5283 10.0398 17.0285 11.1567 19.2782C12.2736 21.528 13.9393 23.4531 15.9967 24.872C17.0522 25.6045 17.9148 26.5863 18.5096 27.7321C19.1044 28.878 19.4135 30.1532 19.41 31.4471V36H28.5904V31.4471C28.5867 30.1532 28.8956 28.8781 29.4902 27.7322C30.0849 26.5864 30.9474 25.6046 32.0028 24.872C34.0607 23.4537 35.7268 21.5286 36.8438 19.2788C37.9607 17.0289 38.4917 14.5284 38.3864 12.0135ZM16.5185 31.4471C16.5228 30.6289 16.3291 29.822 15.9544 29.0967C15.5797 28.3713 15.0352 27.7495 14.3684 27.2854C13.4622 26.6605 12.6157 25.9514 11.8401 25.1674C11.0014 24.3182 10.2507 23.3848 9.59972 22.3816V36H16.5185V31.4471ZM32.045 29.0967C31.6703 29.822 31.4767 30.6289 31.481 31.4471V36H38.3997V22.3816C37.7487 23.3848 36.998 24.3182 36.1593 25.1674C35.3837 25.9514 34.5373 26.6605 33.631 27.2854C32.9642 27.7495 32.4197 28.3713 32.045 29.0967Z" fill="#E0095F"/>
<path fill-rule="evenodd" clip-rule="evenodd" d="M147.379 19.5414C147 19.3872 146.587 19.3101 146.138 19.3101C145.592 19.3101 145.094 19.4082 144.645 19.6045C144.197 19.7867 143.812 20.06 143.489 20.4244C143.181 20.7889 142.935 21.2304 142.753 21.749C142.585 22.2536 142.501 22.8353 142.501 23.4941V26.8791C142.501 27.5239 142.585 28.0986 142.753 28.6032C142.935 29.1078 143.181 29.5423 143.489 29.9067C143.812 30.2571 144.19 30.5234 144.624 30.7057C145.073 30.8879 145.564 30.979 146.096 30.979C146.587 30.979 147.028 30.9019 147.421 30.7477C147.827 30.5795 148.192 30.3482 148.514 30.0539C148.85 29.7455 149.131 29.3741 149.355 28.9396H149.703C149.726 29.069 149.758 29.1952 149.797 29.318C149.909 29.6124 150.07 29.8717 150.28 30.0959C150.504 30.3062 150.785 30.4744 151.121 30.6005C151.458 30.7127 151.843 30.7687 152.278 30.7687H152.614H152.971C153.041 30.7687 153.098 30.7477 153.14 30.7057C153.182 30.6636 153.203 30.6075 153.203 30.5375V29.6754V28.8134H152.866H152.803H152.719H152.635C152.523 28.8134 152.418 28.7994 152.32 28.7714C152.236 28.7433 152.172 28.7013 152.13 28.6452C152.06 28.5751 152.004 28.491 151.962 28.3929C151.934 28.2948 151.92 28.1756 151.92 28.0355V24.8397V21.6439V18.4271V15.2313C151.92 15.1752 151.906 15.1332 151.878 15.1051C151.864 15.0771 151.843 15.0561 151.815 15.0421C151.787 15.014 151.745 15 151.689 15H150.659H149.649V16.3246V17.6912V20.3614V21.0762H149.292C149.04 20.6978 148.752 20.3824 148.43 20.1301C148.108 19.8778 147.757 19.6816 147.379 19.5414ZM149.649 22.9497C149.259 22.4744 148.86 22.1232 148.451 21.8962C147.946 21.6018 147.407 21.4547 146.832 21.4547C146.412 21.4547 146.047 21.5458 145.739 21.728C145.43 21.9102 145.192 22.1835 145.024 22.548C144.87 22.8984 144.793 23.3329 144.793 23.8515V26.5217C144.793 26.9282 144.842 27.2856 144.94 27.594C145.038 27.8883 145.178 28.1266 145.36 28.3088C145.543 28.477 145.753 28.6102 145.991 28.7083C146.243 28.7924 146.524 28.8344 146.832 28.8344C147.211 28.8344 147.575 28.7573 147.925 28.6032C148.276 28.435 148.612 28.1897 148.935 27.8673C149.18 27.6318 149.419 27.3513 149.649 27.026V25.6807V23.0105V22.9497ZM74.2076 30.7687H73.2194H72.2312C72.1892 30.7687 72.1471 30.7617 72.1051 30.7477L72.021 30.6636C72.007 30.6216 72 30.5795 72 30.5375V27.4468V24.3561V21.2444V18.1537V17.1025V16.0512H72.883H73.9763H74.8383C74.9084 16.0512 74.9645 16.0653 75.0065 16.0933C75.0626 16.1073 75.1117 16.1424 75.1537 16.1984C75.1958 16.2545 75.2378 16.3456 75.2799 16.4717C75.5322 17.0464 75.7775 17.6351 76.0157 18.2378C76.268 18.8265 76.5133 19.4223 76.7516 20.025C77.0039 20.6277 77.2492 21.2374 77.4875 21.8541C77.7398 22.4709 77.9851 23.1016 78.2234 23.7464C78.3344 24.024 78.4468 24.3043 78.5606 24.5874H78.9257C79.0434 24.2846 79.1597 23.9832 79.2746 23.6833C79.5409 23.0245 79.8002 22.3728 80.0525 21.728C80.3048 21.0832 80.5571 20.4455 80.8094 19.8147C81.0617 19.17 81.314 18.5392 81.5663 17.9225C81.8186 17.2917 82.0709 16.668 82.3232 16.0512H83.2273H84.3626H85.2667C85.3088 16.0512 85.3438 16.0653 85.3718 16.0933C85.4139 16.1073 85.4419 16.1353 85.4559 16.1774C85.484 16.2054 85.498 16.2405 85.498 16.2825V17.7753V19.6886V21.8752V24.1879V26.5007V28.6662V29.3601V30.0749V30.7687H84.4678H83.5006C83.4586 30.7687 83.4165 30.7617 83.3745 30.7477L83.2904 30.6636C83.2764 30.6216 83.2694 30.5795 83.2694 30.5375V29.5913V28.6452V27.6991V26.3745C83.2834 25.926 83.2904 25.4774 83.2904 25.0289C83.3044 24.5804 83.3184 24.1178 83.3324 23.6413C83.3605 23.1647 83.3885 22.6741 83.4165 22.1695C83.4586 21.6649 83.5006 21.1323 83.5427 20.5716C83.571 20.1848 83.5993 19.7854 83.6276 19.3732H83.2171C83.054 19.771 82.8822 20.1774 82.7017 20.5926C82.4354 21.2234 82.169 21.8682 81.9027 22.5269C81.6364 23.1857 81.3701 23.8375 81.1038 24.4823C80.8375 25.127 80.5782 25.7508 80.3259 26.3535C80.0736 26.9562 79.8353 27.5309 79.611 28.0775H78.8121H77.9921C77.95 28.0775 77.908 28.0705 77.8659 28.0565C77.8239 28.0285 77.7818 27.9724 77.7398 27.8883C77.5856 27.4818 77.3894 27.0053 77.1511 26.4586C76.9268 25.912 76.6885 25.3233 76.4362 24.6925C76.1839 24.0477 75.9176 23.389 75.6373 22.7162C75.357 22.0293 75.0766 21.3565 74.7963 20.6978C74.6165 20.2435 74.4398 19.8019 74.2664 19.3732H73.8426C73.8762 19.7677 73.9067 20.1531 73.9343 20.5296C73.9903 21.0902 74.0324 21.6229 74.0604 22.1275C74.1025 22.6321 74.1305 23.1226 74.1445 23.5992C74.1585 24.0758 74.1725 24.5453 74.1866 25.0079C74.2006 25.4564 74.2076 25.905 74.2076 26.3535V27.6991V29.2339V30.7687ZM92.4272 19.3101C93.142 19.3101 93.7798 19.4012 94.3405 19.5834C94.9152 19.7516 95.3987 19.9969 95.7912 20.3193C96.1837 20.6417 96.478 21.0272 96.6742 21.4757C96.8845 21.9102 96.9896 22.3938 96.9896 22.9264V23.1367C96.9896 23.7674 96.8705 24.293 96.6322 24.7135C96.3939 25.134 96.0505 25.4494 95.602 25.6597C95.1534 25.8699 94.6208 25.975 94.0041 25.975H92.5323H90.9344H89.6729V26.3325C89.6729 26.753 89.729 27.1244 89.8411 27.4468C89.9533 27.7692 90.1145 28.0425 90.3247 28.2668C90.591 28.5331 90.9344 28.7293 91.3549 28.8555C91.7894 28.9816 92.3221 29.0447 92.9528 29.0447C93.4434 29.0447 93.8779 29.0166 94.2564 28.9606C94.6348 28.9045 94.9852 28.8274 95.3076 28.7293C95.644 28.6172 95.9944 28.477 96.3589 28.3088H96.6953V29.1498V29.9908C96.6953 30.0188 96.6883 30.0469 96.6742 30.0749C96.6742 30.1029 96.6602 30.131 96.6322 30.159C96.492 30.2992 96.2467 30.4323 95.8963 30.5585C95.5599 30.6846 95.1324 30.7898 94.6138 30.8738C94.0952 30.9579 93.5205 31 92.8897 31C92.0067 31 91.2288 30.9019 90.556 30.7057C89.8832 30.4954 89.3155 30.194 88.853 29.8016C88.3904 29.4091 88.04 28.9255 87.8017 28.3509C87.5634 27.7622 87.4443 27.0894 87.4443 26.3325V24.0618C87.4443 23.2908 87.5634 22.611 87.8017 22.0223C88.054 21.4196 88.4044 20.922 88.853 20.5296C89.3155 20.1231 89.8481 19.8217 90.4509 19.6255C91.0676 19.4152 91.7264 19.3101 92.4272 19.3101ZM90.2196 24.4612H89.6729V24.0197C89.6729 23.3469 89.7781 22.8073 89.9883 22.4008C90.2126 21.9943 90.5279 21.7 90.9344 21.5177C91.3409 21.3215 91.8385 21.2234 92.4272 21.2234C92.8477 21.2234 93.2121 21.2724 93.5205 21.3706C93.8429 21.4687 94.1022 21.6159 94.2984 21.8121C94.4666 21.9803 94.5858 22.1765 94.6558 22.4008C94.7399 22.611 94.782 22.8633 94.782 23.1577C94.782 23.5922 94.6629 23.9216 94.4246 24.1459C94.2003 24.3561 93.8429 24.4612 93.3523 24.4612H91.8385H90.2196ZM101.207 23.4388V23.5572V25.975V28.456V30.7687H100.514H99.7987H99.1049H98.9998L98.9157 30.7267L98.8736 30.6426V30.5375V29.1919V27.4468V25.4915V23.4941V21.6229V20.4455V19.5414H99.6095H100.324H100.976C101.032 19.5414 101.074 19.5554 101.102 19.5834C101.13 19.5975 101.151 19.6185 101.165 19.6465C101.193 19.6746 101.207 19.7166 101.207 19.7727V21.4336V21.5388H101.586C101.838 21.0201 102.097 20.5997 102.364 20.2773C102.644 19.9409 102.952 19.7026 103.289 19.5624C103.639 19.4082 104.025 19.3311 104.445 19.3311C104.684 19.3311 104.88 19.3522 105.034 19.3942C105.202 19.4223 105.328 19.4643 105.412 19.5204C105.482 19.5484 105.525 19.5905 105.539 19.6465C105.553 19.6886 105.56 19.7446 105.56 19.8147V20.3193V20.8029V21.2865V21.77H105.223C105.083 21.728 104.922 21.6929 104.74 21.6649C104.571 21.6369 104.375 21.6229 104.151 21.6229C103.702 21.6229 103.296 21.707 102.931 21.8752C102.581 22.0434 102.238 22.2957 101.901 22.6321C101.676 22.8571 101.445 23.126 101.207 23.4388ZM107.288 19.5414H107.687H108.171H108.654H109.075L109.159 19.8778C109.215 20.1021 109.278 20.3614 109.348 20.6557C109.394 20.8502 109.438 21.0324 109.478 21.2024H109.853C110.119 20.8099 110.406 20.4735 110.715 20.1932C111.023 19.8988 111.353 19.6816 111.703 19.5414C112.053 19.3872 112.425 19.3101 112.817 19.3101C113.224 19.3101 113.588 19.3732 113.911 19.4993C114.247 19.6115 114.534 19.7867 114.773 20.025C115.025 20.2492 115.214 20.5366 115.34 20.887C115.381 20.9875 115.415 21.0926 115.444 21.2024H115.866C116.132 20.7678 116.406 20.4174 116.686 20.1511C116.98 19.8708 117.303 19.6605 117.653 19.5204C118.003 19.3802 118.389 19.3101 118.809 19.3101C119.16 19.3101 119.496 19.3732 119.819 19.4993C120.141 19.6115 120.421 19.7867 120.66 20.025C120.912 20.2632 121.108 20.5646 121.248 20.929C121.388 21.2935 121.459 21.721 121.459 22.2116V23.9777V26.1222V28.4139C121.459 28.47 121.466 28.5261 121.48 28.5821C121.494 28.6242 121.522 28.6662 121.564 28.7083L121.69 28.7924C121.732 28.8064 121.788 28.8134 121.858 28.8134H121.963H122.068H122.321V29.6754V30.5375C122.321 30.6075 122.3 30.6636 122.258 30.7057C122.215 30.7477 122.159 30.7687 122.089 30.7687H121.606H120.954C120.562 30.7687 120.225 30.6986 119.945 30.5585C119.664 30.4183 119.454 30.2151 119.314 29.9488C119.188 29.6684 119.125 29.339 119.125 28.9606V27.3417V25.7648V24.272V22.9054C119.125 22.4148 119.027 22.0574 118.83 21.8331C118.648 21.6088 118.347 21.4967 117.926 21.4967C117.618 21.4967 117.31 21.5878 117.001 21.77C116.693 21.9382 116.392 22.1905 116.097 22.5269C115.909 22.7328 115.727 22.9757 115.551 23.2558V23.5151V25.4494V27.8673V30.7687H114.878H114.058H113.427C113.385 30.7687 113.343 30.7617 113.301 30.7477L113.217 30.6636C113.203 30.6356 113.196 30.5935 113.196 30.5375V28.498V26.5007V24.6084V22.8423C113.196 22.5339 113.154 22.2816 113.07 22.0854C113 21.8752 112.88 21.728 112.712 21.6439C112.558 21.5458 112.355 21.4967 112.102 21.4967C111.808 21.4967 111.5 21.5878 111.177 21.77C110.869 21.9382 110.561 22.1905 110.252 22.5269C110.042 22.7563 109.832 23.028 109.622 23.3421V24.5453V27.594V30.7687H109.117H108.549H108.003H107.519H107.414L107.33 30.7267L107.288 30.6426V30.5375V27.5729V24.6084V21.6439V20.4875V19.5414ZM128.725 19.5204C128.347 19.3802 127.919 19.3101 127.442 19.3101C126.896 19.3101 126.398 19.4082 125.95 19.6045C125.501 19.7867 125.116 20.06 124.793 20.4244C124.485 20.7889 124.24 21.2304 124.057 21.749C123.889 22.2676 123.805 22.8493 123.805 23.4941V26.8791C123.805 27.5239 123.889 28.0986 124.057 28.6032C124.24 29.1078 124.485 29.5423 124.793 29.9067C125.116 30.2571 125.494 30.5234 125.929 30.7057C126.377 30.8879 126.868 30.979 127.4 30.979C127.891 30.979 128.333 30.9019 128.725 30.7477C129.131 30.5795 129.496 30.3482 129.818 30.0539C130.155 29.7455 130.435 29.3741 130.659 28.9396H131.009C131.054 29.1738 131.127 29.391 131.227 29.5913C131.423 29.9558 131.718 30.2431 132.11 30.4534C132.516 30.6636 133.007 30.7687 133.582 30.7687H133.918H134.276C134.346 30.7687 134.402 30.7477 134.444 30.7057C134.486 30.6636 134.507 30.6075 134.507 30.5375V29.6754V28.8134H134.17H134.044H133.939C133.701 28.8134 133.519 28.7503 133.393 28.6242C133.28 28.498 133.224 28.3018 133.224 28.0355V25.3022V22.548V19.7727C133.224 19.7166 133.21 19.6746 133.182 19.6465C133.168 19.6185 133.147 19.5975 133.119 19.5834C133.091 19.5554 133.049 19.5414 132.993 19.5414H131.963H130.954V20.4665V21.0552H130.596C130.372 20.6767 130.099 20.3614 129.776 20.1091C129.468 19.8428 129.117 19.6465 128.725 19.5204ZM130.954 22.9496C130.563 22.4744 130.164 22.1232 129.755 21.8962C129.251 21.6018 128.711 21.4547 128.136 21.4547C127.716 21.4547 127.351 21.5458 127.043 21.728C126.749 21.9102 126.517 22.1835 126.349 22.548C126.181 22.8984 126.097 23.3329 126.097 23.8515V26.5217C126.097 26.9282 126.146 27.2856 126.244 27.594C126.342 27.8883 126.482 28.1266 126.665 28.3088C126.847 28.477 127.064 28.6102 127.316 28.7083C127.569 28.7924 127.842 28.8344 128.136 28.8344C128.515 28.8344 128.879 28.7573 129.23 28.6032C129.58 28.435 129.916 28.1897 130.239 27.8673C130.485 27.6318 130.723 27.3513 130.954 27.026V26.3114V24.272V22.9496ZM135.066 19.5414H136.202H137.442H139.019C139.075 19.5414 139.117 19.5554 139.145 19.5834C139.173 19.5975 139.194 19.6185 139.208 19.6465C139.236 19.6746 139.25 19.7166 139.25 19.7727V21.77V23.7464V25.7227V27.657C139.25 27.8533 139.264 28.0145 139.292 28.1406C139.32 28.2527 139.376 28.3579 139.461 28.456C139.545 28.5261 139.643 28.5821 139.755 28.6242C139.867 28.6522 140.014 28.6662 140.196 28.6662H140.47H140.827H141.164V29.5913V30.5375C141.164 30.6075 141.143 30.6636 141.1 30.7057C141.058 30.7477 141.002 30.7687 140.932 30.7687H140.638H140.302H139.839C139.348 30.7687 138.921 30.7057 138.556 30.5795C138.206 30.4534 137.912 30.2711 137.673 30.0329C137.449 29.7946 137.281 29.5002 137.169 29.1498C137.071 28.7854 137.022 28.3789 137.022 27.9304V26.2904V24.7346V23.1997V21.6439H136.832H136.391H135.886H135.298C135.228 21.6439 135.171 21.6229 135.129 21.5808C135.087 21.5388 135.066 21.4827 135.066 21.4126V20.4875V19.5414ZM138.813 15H137.011V16.8021C137.011 17.0145 137.011 17.1207 137.077 17.1867C137.143 17.2527 137.249 17.2527 137.461 17.2527H139.264V15.4505C139.264 15.2382 139.264 15.132 139.198 15.066C139.132 15 139.025 15 138.813 15Z" fill="#E0095F"/>
</svg>
