<?xml version="1.0" encoding="UTF-8" standalone="no"?>
<!DOCTYPE svg PUBLIC "-//W3C//DTD SVG 1.1//EN" "http://www.w3.org/Graphics/SVG/1.1/DTD/svg11.dtd">
<svg width="100%" height="100%" viewBox="0 0 1024 137" version="1.1" xmlns="http://www.w3.org/2000/svg" xmlns:xlink="http://www.w3.org/1999/xlink" xml:space="preserve" xmlns:serif="http://www.serif.com/" style="fill-rule:evenodd;clip-rule:evenodd;stroke-linejoin:round;stroke-miterlimit:2;">
    <g transform="matrix(1,0,0,1,-0.0012207,-0.0656128)">
        <path d="M229.812,0.102L227.602,0.102C215.97,0.084 206.53,9.506 206.53,21.138L206.53,68.184C206.53,77.578 198.766,85.188 189.525,85.188C184.035,85.188 178.554,82.425 175.302,77.787L127.25,9.161C123.264,3.463 116.778,0.066 109.757,0.066C98.804,0.066 88.947,9.379 88.947,20.875L88.947,68.193C88.947,77.587 81.246,85.197 71.942,85.197C66.434,85.197 60.962,82.434 57.71,77.796L3.942,1.008C2.728,-0.723 0.001,0.129 0.001,2.249L0.001,43.279C0.001,45.354 0.635,47.365 1.822,49.068L54.729,124.633C57.855,129.099 62.466,132.415 67.784,133.62C81.092,136.646 93.341,126.4 93.341,113.345L93.341,66.055C93.341,56.66 100.951,49.05 110.345,49.05L110.373,49.05C116.035,49.05 121.344,51.813 124.596,56.452L172.647,125.068C176.642,130.775 182.794,134.164 190.132,134.164C201.33,134.164 210.923,124.841 210.923,113.354L210.923,66.046C210.923,56.651 218.533,49.041 227.928,49.041L229.803,49.041C230.981,49.041 231.932,48.09 231.932,46.912L231.932,2.222C231.932,1.044 230.981,0.093 229.803,0.093L229.812,0.102ZM505.663,35.506L493.904,35.506C492.708,35.506 491.739,36.476 491.739,37.671L491.739,131.98C491.739,133.176 492.708,134.146 493.904,134.146L505.663,134.146C506.859,134.146 507.828,133.176 507.828,131.98L507.828,37.671C507.828,36.476 506.859,35.506 505.663,35.506ZM493.514,0.075L506.044,0.075C507.239,0.075 508.209,1.044 508.209,2.24L508.209,17.641C508.209,18.837 507.239,19.806 506.044,19.806L493.514,19.806C492.318,19.806 491.349,18.837 491.349,17.641L491.349,2.24C491.349,1.044 492.318,0.075 493.514,0.075ZM576.047,32.825C562.83,32.825 553.254,37.418 547.121,44.131C545.155,46.124 541.757,44.729 541.757,41.929L541.757,37.671C541.757,36.476 540.788,35.506 539.592,35.506L528.032,35.506C526.837,35.506 525.867,36.476 525.867,37.671L525.867,131.98C525.867,133.176 526.837,134.146 528.032,134.146L539.601,134.146C540.797,134.146 541.766,133.176 541.766,131.98L541.766,72.278C541.766,51.587 545.789,46.994 567.822,46.994C589.854,46.994 593.487,50.636 593.487,71.318L593.487,131.971C593.487,133.167 594.456,134.136 595.652,134.136L607.411,134.136C608.607,134.136 609.577,133.167 609.577,131.971L609.577,66.906C609.577,43.343 596.169,32.807 576.057,32.807L576.057,32.825L576.047,32.825ZM696.176,45.472C698.142,47.465 701.539,46.07 701.539,43.27L701.539,2.249C701.539,1.053 702.509,0.084 703.704,0.084L715.273,0.084C716.469,0.084 717.439,1.053 717.439,2.249L717.439,131.989C717.439,133.185 716.469,134.155 715.273,134.155L703.704,134.155C702.509,134.155 701.539,133.185 701.539,131.989L701.539,126.391C701.657,123.528 698.187,122.151 696.176,124.189C690.623,131.083 679.896,136.827 665.528,136.827C640.252,136.827 623.773,118.826 623.773,85.306C623.773,49.875 642.155,32.825 666.099,32.825C680.467,32.825 690.813,38.577 696.176,45.472ZM641.194,84.917C641.194,117.286 645.217,122.078 671.462,122.078C697.517,122.078 701.539,117.286 701.539,84.917C701.539,52.547 697.707,47.564 671.462,47.564C645.217,47.564 641.194,52.547 641.194,84.917ZM784.678,78.801L765.726,75.549C751.738,73.058 749.247,68.845 749.247,61.561C749.437,51.596 753.269,46.622 771.85,46.622C789.253,46.622 794.825,51.768 796.021,62.875C796.139,63.971 797.063,64.814 798.168,64.814L809.664,64.814C810.896,64.814 811.902,63.781 811.829,62.54C810.715,43.469 793.258,32.816 772.43,32.816C749.057,32.816 733.547,45.263 733.547,63.083C733.547,79.363 746.194,86.457 761.323,89.328L782.205,93.161C793.702,95.271 797.534,99.104 797.534,106.378C797.534,118.065 793.511,123.048 773.78,123.048C754.048,123.048 748.594,117.358 747.326,105.826C747.208,104.729 746.284,103.896 745.179,103.896L733.61,103.896C732.396,103.896 731.409,104.902 731.436,106.116C731.989,126.662 750.615,136.845 772.81,136.845C796.945,136.845 813.605,124.398 813.605,105.617C813.605,89.147 800.958,81.673 784.678,78.801ZM868.405,122.667C889.858,122.667 893.88,118.074 893.88,97.382L893.88,37.699C893.88,36.503 894.849,35.533 896.045,35.533L907.804,35.533C909,35.533 909.97,36.503 909.97,37.699L909.97,132.008C909.97,133.203 909,134.173 907.804,134.173L896.045,134.173C894.849,134.173 893.88,133.203 893.88,132.008L893.88,127.895C893.835,124.968 890.8,123.51 888.707,125.557C882.583,132.261 873.007,136.854 860.17,136.854C840.438,136.854 827.03,126.318 827.03,102.755L827.03,37.69C827.03,36.494 828,35.524 829.196,35.524L840.955,35.524C842.151,35.524 843.12,36.494 843.12,37.69L843.12,98.343C843.12,119.025 846.952,122.667 868.405,122.667ZM1004.06,35.524L1004.06,22.859C1004.06,17.886 1008.09,13.854 1013.07,13.854L1021.82,13.854C1023.01,13.854 1023.98,12.885 1023.98,11.689L1023.98,2.231C1023.98,1.035 1023.01,0.066 1021.82,0.066L1015.75,0.066C998.508,0.066 987.972,9.641 987.972,26.121L987.972,35.506L975.225,35.506C963.928,35.524 955.059,37.074 949.143,44.131C946.969,46.187 943.97,44.647 943.97,41.658L943.97,37.681C943.97,36.485 943.001,35.515 941.805,35.515L930.046,35.515C928.85,35.515 927.88,36.485 927.88,37.681L927.88,131.989C927.88,133.185 928.85,134.155 930.046,134.155L941.805,134.155C943.001,134.155 943.97,133.185 943.97,131.989L943.97,72.867C943.97,53.326 948.953,48.733 970.405,48.733L987.972,48.733L987.972,131.998C987.972,133.194 988.941,134.164 990.137,134.164L1001.9,134.164C1003.09,134.164 1004.06,133.194 1004.06,131.998L1004.06,48.733L1021.84,48.733C1023.03,48.733 1024,47.764 1024,46.568L1024,37.69C1024,36.494 1023.03,35.524 1021.84,35.524L1004.06,35.524ZM426.267,109.549C426.683,111.28 428.233,112.503 430.008,112.503L430.017,112.503C431.784,112.503 433.324,111.298 433.75,109.585L460.72,1.714C460.964,0.745 461.834,0.066 462.831,0.066L476.293,0.066C477.734,0.066 478.784,1.425 478.422,2.82L444.494,132.578C444.25,133.493 443.425,134.136 442.474,134.136L418.457,134.136C417.488,134.136 416.646,133.475 416.401,132.542L388.217,24.001C387.782,22.307 386.251,21.12 384.494,21.12L384.249,21.12C382.5,21.12 380.969,22.307 380.526,24.001L352.351,132.542C352.106,133.484 351.263,134.136 350.294,134.136L326.277,134.136C325.326,134.136 324.493,133.493 324.257,132.578L290.33,2.82C289.967,1.425 291.018,0.066 292.459,0.066L305.921,0.066C306.917,0.066 307.787,0.745 308.032,1.714L334.993,109.585C335.418,111.298 336.95,112.503 338.725,112.503C340.501,112.503 342.05,111.28 342.467,109.549L368.386,1.733C368.621,0.754 369.491,0.066 370.497,0.066L398.246,0.066C399.251,0.066 400.121,0.754 400.357,1.733L426.267,109.549Z" style="fill:white;"/>
    </g>
</svg>
